<svg width="14" height="14" viewBox="0 0 14 14" fill="none" xmlns="http://www.w3.org/2000/svg">
<g opacity="0.5">
<path d="M9.62498 11.3335C9.92678 11.2146 10.2193 11.0733 10.5 10.9108V13.125C10.5 13.2411 10.4539 13.3524 10.3718 13.4344C10.2898 13.5165 10.1785 13.5625 10.0625 13.5625C9.94645 13.5625 9.83517 13.5165 9.75313 13.4344C9.67108 13.3524 9.62498 13.2411 9.62498 13.125V11.3335ZM10.2681 6.49747L7.20561 4.86396C7.10343 4.81177 6.98484 4.8018 6.87539 4.83621C6.76594 4.87062 6.67439 4.94665 6.62045 5.04792C6.56652 5.14919 6.55453 5.26759 6.58706 5.37761C6.61958 5.48764 6.69403 5.58048 6.79436 5.63614L9.35155 7.00005L10.2812 6.50458L10.2681 6.49747ZM13.7681 4.86396L7.20561 1.36396C7.14231 1.33025 7.0717 1.31262 6.99999 1.31262C6.92827 1.31262 6.85766 1.33025 6.79436 1.36396L0.23186 4.86396C0.161863 4.90126 0.103323 4.95689 0.0625041 5.0249C0.021685 5.09291 0.00012207 5.17073 0.00012207 5.25005C0.00012207 5.32937 0.021685 5.40719 0.0625041 5.4752C0.103323 5.54321 0.161863 5.59884 0.23186 5.63614L1.74999 6.44606V9.09403C1.74953 9.30893 1.82862 9.5164 1.97202 9.67646C2.68842 10.4743 4.2935 11.8125 6.99999 11.8125C7.89738 11.82 8.78806 11.6574 9.62498 11.3335V7.14606L9.35155 7.00005L6.99999 8.25403L2.39694 5.79692L1.36717 5.25005L6.99999 2.24606L12.6328 5.25005L11.6058 5.79692H11.6025L10.2812 6.50458C10.3478 6.54299 10.403 6.59823 10.4414 6.66476C10.4798 6.73129 10.5 6.80675 10.5 6.88356V10.9108C11.0705 10.5814 11.586 10.165 12.028 9.67646C12.1714 9.5164 12.2504 9.30893 12.25 9.09403V6.44606L13.7681 5.63614C13.8381 5.59884 13.8966 5.54321 13.9375 5.4752C13.9783 5.40719 13.9998 5.32937 13.9998 5.25005C13.9998 5.17073 13.9783 5.09291 13.9375 5.0249C13.8966 4.95689 13.8381 4.90126 13.7681 4.86396Z" fill="#001451"/>
</g>
</svg>
