<svg width="61" height="60" viewBox="0 0 61 60" fill="none" xmlns="http://www.w3.org/2000/svg">
<rect x="0.75" y="0.25" width="59.5" height="59.5" fill="#F3F5F7" stroke="#CFD9DE" stroke-width="0.5"/>
<g opacity="0.2">
<path d="M44.8594 39.8033H42.8594V25.8033C42.8594 25.2729 42.6487 24.7642 42.2736 24.3891C41.8985 24.014 41.3898 23.8033 40.8594 23.8033H32.8594V17.8033C32.8596 17.4411 32.7615 17.0857 32.5755 16.7749C32.3895 16.4642 32.1226 16.2097 31.8033 16.0388C31.4841 15.8679 31.1243 15.7868 30.7626 15.8043C30.4008 15.8219 30.0506 15.9373 29.7494 16.1383L19.7494 22.8033C19.475 22.9863 19.2502 23.2343 19.095 23.5253C18.9397 23.8162 18.8587 24.141 18.8594 24.4708V39.8033H16.8594C16.5942 39.8033 16.3398 39.9087 16.1523 40.0962C15.9647 40.2837 15.8594 40.5381 15.8594 40.8033C15.8594 41.0685 15.9647 41.3229 16.1523 41.5104C16.3398 41.6979 16.5942 41.8033 16.8594 41.8033H44.8594C45.1246 41.8033 45.3789 41.6979 45.5665 41.5104C45.754 41.3229 45.8594 41.0685 45.8594 40.8033C45.8594 40.5381 45.754 40.2837 45.5665 40.0962C45.3789 39.9087 45.1246 39.8033 44.8594 39.8033ZM40.8594 25.8033V39.8033H32.8594V25.8033H40.8594ZM20.8594 24.4708L30.8594 17.8033V39.8033H20.8594V24.4708ZM28.8594 27.8033V29.8033C28.8594 30.0685 28.754 30.3229 28.5665 30.5104C28.3789 30.6979 28.1246 30.8033 27.8594 30.8033C27.5942 30.8033 27.3398 30.6979 27.1523 30.5104C26.9647 30.3229 26.8594 30.0685 26.8594 29.8033V27.8033C26.8594 27.5381 26.9647 27.2837 27.1523 27.0962C27.3398 26.9087 27.5942 26.8033 27.8594 26.8033C28.1246 26.8033 28.3789 26.9087 28.5665 27.0962C28.754 27.2837 28.8594 27.5381 28.8594 27.8033ZM24.8594 27.8033V29.8033C24.8594 30.0685 24.754 30.3229 24.5665 30.5104C24.3789 30.6979 24.1246 30.8033 23.8594 30.8033C23.5942 30.8033 23.3398 30.6979 23.1523 30.5104C22.9647 30.3229 22.8594 30.0685 22.8594 29.8033V27.8033C22.8594 27.5381 22.9647 27.2837 23.1523 27.0962C23.3398 26.9087 23.5942 26.8033 23.8594 26.8033C24.1246 26.8033 24.3789 26.9087 24.5665 27.0962C24.754 27.2837 24.8594 27.5381 24.8594 27.8033ZM24.8594 34.8033V36.8033C24.8594 37.0685 24.754 37.3229 24.5665 37.5104C24.3789 37.6979 24.1246 37.8033 23.8594 37.8033C23.5942 37.8033 23.3398 37.6979 23.1523 37.5104C22.9647 37.3229 22.8594 37.0685 22.8594 36.8033V34.8033C22.8594 34.5381 22.9647 34.2837 23.1523 34.0962C23.3398 33.9087 23.5942 33.8033 23.8594 33.8033C24.1246 33.8033 24.3789 33.9087 24.5665 34.0962C24.754 34.2837 24.8594 34.5381 24.8594 34.8033ZM28.8594 34.8033V36.8033C28.8594 37.0685 28.754 37.3229 28.5665 37.5104C28.3789 37.6979 28.1246 37.8033 27.8594 37.8033C27.5942 37.8033 27.3398 37.6979 27.1523 37.5104C26.9647 37.3229 26.8594 37.0685 26.8594 36.8033V34.8033C26.8594 34.5381 26.9647 34.2837 27.1523 34.0962C27.3398 33.9087 27.5942 33.8033 27.8594 33.8033C28.1246 33.8033 28.3789 33.9087 28.5665 34.0962C28.754 34.2837 28.8594 34.5381 28.8594 34.8033Z" fill="#001451"/>
</g>
</svg>
