<svg width="61" height="60" viewBox="0 0 61 60" fill="none" xmlns="http://www.w3.org/2000/svg">
<rect x="0.75" y="0.25" width="59.5" height="59.5" fill="#F3F5F7" stroke="#CFD9DE" stroke-width="0.5"/>
<g opacity="0.2">
<path d="M41.5 22H19.5C18.9477 22 18.5 22.4477 18.5 23V39C18.5 39.5523 18.9477 40 19.5 40H41.5C42.0523 40 42.5 39.5523 42.5 39V23C42.5 22.4477 42.0523 22 41.5 22Z" stroke="#001451" stroke-width="1.5" stroke-linecap="round" stroke-linejoin="round"/>
<path d="M35.5 22V20C35.5 19.4696 35.2893 18.9609 34.9142 18.5858C34.5391 18.2107 34.0304 18 33.5 18H27.5C26.9696 18 26.4609 18.2107 26.0858 18.5858C25.7107 18.9609 25.5 19.4696 25.5 20V22" stroke="#001451" stroke-width="1.5" stroke-linecap="round" stroke-linejoin="round"/>
<path d="M42.5 28.7887C38.8532 30.8987 34.7132 32.0066 30.5 31.9999C26.2869 32.0067 22.147 30.8992 18.5 28.7899" stroke="#001451" stroke-width="1.5" stroke-linecap="round" stroke-linejoin="round"/>
<path d="M28.5 28H32.5" stroke="#001451" stroke-width="1.5" stroke-linecap="round" stroke-linejoin="round"/>
</g>
</svg>
