<svg width="374" height="280" viewBox="0 0 374 280" fill="none" xmlns="http://www.w3.org/2000/svg">
<path fill-rule="evenodd" clip-rule="evenodd" d="M66.0671 173.505L68.9095 186.123L56.5394 182.269L66.0671 173.505Z" fill="#DD3568"/>
<path d="M68.9095 186.123L66.0671 173.505L56.5394 182.269L68.9095 186.123Z" stroke="#D12A5D" stroke-width="2.126"/>
<path d="M61.5604 179.725C50.9108 170.299 44.88 159.528 44.88 148.095C44.88 110.957 108.525 80.8572 187.028 80.8572C265.54 80.8572 329.176 110.957 329.176 148.095C329.176 160.06 322.566 171.307 310.972 181.041" stroke="#001451" stroke-width="2.126"/>
<path d="M117.298 225.909C110.809 224.173 104.638 222.213 98.8407 220.039C83.9087 214.448 71.4171 207.467 62.2261 199.515C51.165 189.948 44.8818 178.972 44.8818 167.305C44.8818 130.168 108.527 100.068 187.03 100.068C265.542 100.068 329.178 130.168 329.178 167.305C329.178 204.443 265.542 234.543 187.03 234.543C171.191 234.543 155.96 233.32 141.729 231.052" stroke="#001451" stroke-width="2.126"/>
<path d="M223.132 213.145C211.604 214.573 199.505 215.329 187.032 215.329C140.048 215.329 98.3937 204.549 72.5129 187.936" stroke="#001451" stroke-width="2.126"/>
<path fill-rule="evenodd" clip-rule="evenodd" d="M232.995 206.608C230.415 206.608 228.32 208.699 228.32 211.275C228.32 213.851 230.415 215.941 232.995 215.941C235.576 215.941 237.67 213.851 237.67 211.275C237.67 208.699 235.576 206.608 232.995 206.608Z" fill="#001451"/>
<path fill-rule="evenodd" clip-rule="evenodd" d="M95.5139 174.656V97.8803C95.5139 94.0443 101.255 90.9363 108.342 90.9363H247.349C254.436 90.9363 260.186 94.0443 260.186 97.8803V174.656C260.186 178.492 254.436 181.6 247.349 181.6H108.342C101.255 181.6 95.5139 178.492 95.5139 174.656Z" fill="white"/>
<path d="M95.5139 97.8803V174.656C95.5139 178.492 101.255 181.6 108.342 181.6H247.349C254.436 181.6 260.186 178.492 260.186 174.656V97.8803C260.186 94.0443 254.436 90.9363 247.349 90.9363H108.342C101.255 90.9363 95.5139 94.0443 95.5139 97.8803Z" stroke="#001451" stroke-width="2.126"/>
<path fill-rule="evenodd" clip-rule="evenodd" d="M105.014 80.9907H250.696C255.932 80.9907 260.186 85.2373 260.186 90.4733V103.764H95.5139V90.4733C95.5139 85.2373 99.7682 80.9907 105.014 80.9907Z" fill="#DD3568"/>
<path d="M250.696 80.9907H105.014C99.7682 80.9907 95.5139 85.2373 95.5139 90.4733V103.764H260.186V90.4733C260.186 85.2373 255.932 80.9907 250.696 80.9907Z" stroke="#D12A5D" stroke-width="2.126"/>
<path fill-rule="evenodd" clip-rule="evenodd" d="M248.441 172.423C249.6 177.565 254.724 180.804 259.876 179.656L275.172 176.221C280.324 175.073 283.569 169.949 282.409 164.816L279.801 153.177C277.753 144.068 268.655 138.319 259.52 140.363L258.66 140.559C249.535 142.603 243.775 151.684 245.823 160.793L248.441 172.423ZM274.777 166.521L272.159 154.892C271.056 149.992 266.156 146.893 261.238 147.995L260.378 148.181C255.469 149.283 252.365 154.173 253.468 159.083L256.086 170.712C256.292 171.627 257.236 172.233 258.162 172.028L273.459 168.593C274.375 168.388 274.983 167.445 274.777 166.521Z" fill="#686A6D"/>
<path d="M248.441 172.423C249.6 177.565 254.724 180.804 259.876 179.656L275.172 176.221C280.324 175.073 283.569 169.949 282.409 164.816L279.801 153.177C277.753 144.068 268.655 138.319 259.52 140.363L258.66 140.559C249.535 142.603 243.775 151.684 245.823 160.793L248.441 172.423ZM274.777 166.521L272.159 154.892C271.056 149.992 266.156 146.893 261.238 147.995L260.378 148.181C255.469 149.283 252.365 154.173 253.468 159.083L256.086 170.712C256.292 171.627 257.236 172.233 258.162 172.028L273.459 168.593C274.375 168.388 274.983 167.445 274.777 166.521Z" stroke="#001451" stroke-width="2.126"/>
<path fill-rule="evenodd" clip-rule="evenodd" d="M266.863 203.662L279.134 200.912C289.314 198.631 295.711 188.55 293.425 178.387L290.203 164.062C290.083 163.527 289.858 163.022 289.542 162.574C289.226 162.126 288.825 161.744 288.361 161.451C287.898 161.158 287.381 160.959 286.84 160.865C286.299 160.772 285.745 160.785 285.21 160.905L244.238 170.088C243.702 170.207 243.196 170.431 242.747 170.747C242.298 171.062 241.916 171.463 241.622 171.926C241.329 172.388 241.129 172.904 241.035 173.444C240.942 173.984 240.955 174.537 241.076 175.072L244.298 189.396C246.584 199.559 256.682 205.943 266.863 203.662Z" fill="#DD3568"/>
<path d="M290.478 160.741L241.348 171.752L249.188 206.61L298.318 195.599L290.478 160.741Z" stroke="#D12A5D" stroke-width="2.126"/>
<path fill-rule="evenodd" clip-rule="evenodd" d="M268.125 171.742C264.554 171.742 261.655 174.636 261.655 178.201C261.655 181.766 264.554 184.66 268.125 184.66C271.697 184.66 274.595 181.766 274.595 178.201C274.595 174.636 271.697 171.742 268.125 171.742Z" fill="#001451"/>
<path fill-rule="evenodd" clip-rule="evenodd" d="M270.113 179.468L273.114 189.221C273.414 190.537 272.582 191.853 271.263 192.142C269.935 192.441 268.626 191.61 268.327 190.294L266.869 180.196L270.113 179.468Z" fill="#001451"/>
<path d="M135.09 146.476L134.014 148.352C133.697 148.893 133.379 149.472 133.416 150.097C133.463 150.723 134.043 151.348 134.65 151.18" stroke="#001451" stroke-width="0.425"/>
<path fill-rule="evenodd" clip-rule="evenodd" d="M174.694 122.991H237.573V114.059H174.694V122.991Z" fill="#AFAEB4"/>
<path fill-rule="evenodd" clip-rule="evenodd" d="M174.694 135.256H237.573V129.376H174.694V135.256ZM174.694 147.294H237.573V141.414H174.694V147.294ZM174.694 159.331H219.154V153.451H174.694V159.331Z" fill="#D7D9DD"/>
<path fill-rule="evenodd" clip-rule="evenodd" d="M188.098 98.8183H167.612C165.003 98.8183 162.89 96.7089 162.89 94.1049V79.7036H192.81V94.1049C192.81 96.7089 190.697 98.8183 188.098 98.8183Z" fill="#D12A5D"/>
<path fill-rule="evenodd" clip-rule="evenodd" d="M172.291 60.8867H183.277C183.987 60.8867 184.679 60.6067 185.184 60.1027C185.689 59.5987 185.97 58.908 185.97 58.1987V52.4213C185.97 51.712 185.689 51.0213 185.184 50.5173C184.679 50.0133 183.987 49.7333 183.277 49.7333H172.291C171.58 49.7333 170.888 50.0133 170.383 50.5173C169.878 51.0213 169.598 51.712 169.598 52.4213V58.1987C169.598 58.908 169.878 59.5987 170.383 60.1027C170.888 60.6067 171.58 60.8867 172.291 60.8867Z" fill="#686A6D"/>
<path d="M186.961 50.7264H170.592V59.8936H186.961V50.7264Z" stroke="#001451" stroke-width="2.126"/>
<path fill-rule="evenodd" clip-rule="evenodd" d="M169.55 94.4577H186.025C186.668 94.4552 187.284 94.1985 187.738 93.7437C188.192 93.2889 188.446 92.673 188.446 92.0311V60.9417C188.446 60.2997 188.192 59.6839 187.738 59.2291C187.284 58.7743 186.668 58.5175 186.025 58.515H169.55C169.231 58.5144 168.914 58.5768 168.619 58.6985C168.324 58.8202 168.056 58.999 167.83 59.2244C167.604 59.4499 167.425 59.7177 167.303 60.0123C167.181 60.307 167.119 60.6229 167.119 60.9417V92.0311C167.119 92.3499 167.181 92.6657 167.303 92.9604C167.425 93.2551 167.604 93.5229 167.83 93.7483C168.056 93.9738 168.324 94.1525 168.619 94.2743C168.914 94.396 169.231 94.4583 169.55 94.4577Z" fill="#DCDDDD"/>
<path d="M189.443 59.5081H168.113V93.4637H189.443V59.5081Z" stroke="#001451" stroke-width="2.126"/>
<path fill-rule="evenodd" clip-rule="evenodd" d="M134.256 108.053C117.959 108.053 104.747 121.241 104.747 137.509C104.747 153.767 117.959 166.955 134.256 166.955C150.543 166.955 163.755 153.767 163.755 137.509C163.755 121.241 150.543 108.053 134.256 108.053Z" fill="#D7D9DD"/>
<path fill-rule="evenodd" clip-rule="evenodd" d="M171.606 83.7636C171.606 82.1274 172.257 80.5582 173.416 79.4012C174.575 78.2443 176.147 77.5943 177.787 77.5943V89.9329C176.147 89.9329 174.575 89.283 173.416 88.126C172.257 86.969 171.606 85.3998 171.606 83.7636Z" fill="#DD3568"/>
<path d="M177.787 77.5933C176.147 77.5933 174.575 78.2434 173.416 79.4004C172.257 80.5575 171.606 82.1268 171.606 83.7631C171.606 85.3995 172.257 86.9688 173.416 88.1258C174.575 89.2829 176.147 89.9329 177.787 89.9329V77.5933Z" stroke="#D12A5D" stroke-width="2.126"/>
<path fill-rule="evenodd" clip-rule="evenodd" d="M177.785 77.5933C179.424 77.5933 180.996 78.2434 182.155 79.4004C183.314 80.5575 183.965 82.1268 183.965 83.7631C183.965 85.3995 183.314 86.9688 182.155 88.1258C180.996 89.2829 179.424 89.9329 177.785 89.9329V77.5933Z" fill="#DD3568"/>
<path d="M183.965 83.7636C183.965 82.1274 183.314 80.5582 182.155 79.4012C180.996 78.2443 179.424 77.5943 177.785 77.5943V89.9329C179.424 89.9329 180.996 89.283 182.155 88.126C183.314 86.969 183.965 85.3998 183.965 83.7636Z" stroke="#D12A5D" stroke-width="2.126"/>
<path fill-rule="evenodd" clip-rule="evenodd" d="M149.836 150.045C146.432 154.348 140.888 157.157 134.633 157.157C132.968 157.157 131.351 156.952 129.808 156.579C129.565 156.523 129.34 156.457 129.107 156.392C129.088 156.392 129.069 156.383 129.051 156.383C124.871 155.144 121.224 152.554 118.681 149.019C118.644 148.972 118.616 148.925 118.579 148.869C116.858 146.275 115.867 143.213 115.867 139.956C115.867 138.827 115.989 137.725 116.213 136.652C118.504 137.315 120.888 137.651 123.282 137.641C128.462 137.641 133.165 136.129 136.652 133.675C138.447 132.443 139.962 130.847 141.103 128.989C141.112 128.98 141.112 128.971 141.121 128.952C141.318 128.663 141.71 128.597 142 128.793C148.901 133.479 152.033 142.019 149.836 150.045Z" fill="white"/>
<path d="M134.633 157.157C140.888 157.157 146.432 154.348 149.836 150.045C152.033 142.019 148.901 133.479 142 128.793C141.932 128.746 141.855 128.712 141.774 128.695C141.693 128.677 141.61 128.676 141.528 128.69C141.446 128.705 141.368 128.736 141.298 128.781C141.229 128.826 141.169 128.884 141.121 128.952C141.112 128.971 141.112 128.98 141.103 128.989C139.962 130.847 138.447 132.443 136.652 133.675C133.165 136.129 128.462 137.641 123.282 137.641C120.888 137.651 118.504 137.315 116.213 136.652C115.989 137.725 115.867 138.827 115.867 139.956C115.867 143.213 116.858 146.275 118.579 148.869C118.616 148.925 118.644 148.972 118.681 149.019C121.187 152.5 124.815 155.132 129.051 156.383C129.069 156.383 129.088 156.392 129.107 156.392C129.34 156.457 129.565 156.523 129.808 156.579C131.351 156.952 132.968 157.157 134.633 157.157Z" stroke="#001451" stroke-width="1.417"/>
<path fill-rule="evenodd" clip-rule="evenodd" d="M116.882 129.591C121.436 120.202 132.506 115.955 142.184 119.875C149.57 122.862 154.413 130.021 154.432 137.982C154.432 142.602 152.786 147.073 149.776 150.591C152.038 142.695 149.103 134.249 142.436 129.442C142.417 129.423 142.399 129.414 142.38 129.405C141.866 129.069 141.183 129.218 140.846 129.741C139.734 131.421 138.313 132.877 136.648 134.015C133.161 136.47 128.458 137.982 123.278 137.982C122.315 137.982 121.342 137.926 120.379 137.814C119.491 140.269 119.033 142.854 119.042 145.467C119.033 147.119 119.22 148.762 119.575 150.367C116.223 146.554 114.501 141.582 114.779 136.517C114.321 136.358 113.862 136.181 113.423 135.985C112.893 135.748 112.373 135.493 111.861 135.219C111.422 134.977 111.076 134.594 110.88 134.137C110.365 132.979 110.898 131.626 112.058 131.122C113.61 130.431 115.227 129.918 116.882 129.591Z" fill="#001451"/>
<path d="M142.184 119.875C132.506 115.955 121.436 120.202 116.883 129.591C115.228 129.918 113.61 130.431 112.058 131.122C111.782 131.242 111.532 131.415 111.323 131.632C111.114 131.849 110.95 132.105 110.841 132.385C110.732 132.665 110.679 132.964 110.685 133.264C110.692 133.565 110.758 133.861 110.88 134.137C111.076 134.594 111.422 134.977 111.862 135.219C112.366 135.49 112.881 135.742 113.423 135.985C113.862 136.181 114.321 136.358 114.779 136.517C114.501 141.582 116.223 146.554 119.575 150.367C119.216 148.759 119.037 147.115 119.042 145.467C119.033 142.854 119.491 140.269 120.379 137.814C121.342 137.926 122.315 137.982 123.278 137.982C128.458 137.982 133.161 136.47 136.648 134.015C138.313 132.877 139.734 131.421 140.847 129.741C141.183 129.218 141.866 129.069 142.38 129.405C142.399 129.414 142.417 129.423 142.436 129.442C145.69 131.785 148.141 135.074 149.455 138.859C150.768 142.643 150.88 146.74 149.776 150.591C152.787 147.073 154.432 142.602 154.432 137.982C154.413 130.021 149.57 122.862 142.184 119.875Z" stroke="#001451" stroke-width="0.709"/>
<path d="M129.076 145.77C129.076 144.836 128.328 144.09 127.402 144.09C126.467 144.09 125.719 144.836 125.719 145.77M143.409 145.77C143.409 144.836 142.661 144.09 141.735 144.09C140.8 144.09 140.052 144.836 140.052 145.77" stroke="#001451" stroke-width="1.417"/>
<path d="M134.633 122.749C124.273 122.749 115.867 130.449 115.867 139.95C115.867 149.452 124.273 157.152 134.633 157.152C145.002 157.152 153.407 149.452 153.407 139.95C153.407 130.449 145.002 122.749 134.633 122.749Z" stroke="#001451" stroke-width="1.417"/>
<path fill-rule="evenodd" clip-rule="evenodd" d="M115.051 134.504C114.141 134.525 113.276 134.901 112.64 135.551C112.004 136.2 111.648 137.073 111.648 137.981C111.648 138.889 112.004 139.762 112.64 140.411C113.276 141.061 114.141 141.437 115.051 141.458C115.976 141.458 116.863 141.091 117.517 140.438C118.171 139.785 118.538 138.9 118.538 137.976C118.538 136.063 116.977 134.504 115.051 134.504Z" fill="#001451"/>
<path fill-rule="evenodd" clip-rule="evenodd" d="M134.635 153.611C136.094 153.611 137.281 152.585 137.281 151.306H131.989C131.989 152.585 133.177 153.611 134.635 153.611Z" fill="white"/>
<path d="M134.635 153.611C136.094 153.611 137.281 152.585 137.281 151.306H131.989C131.989 152.585 133.177 153.611 134.635 153.611Z" stroke="#001451" stroke-width="1.5"/>
<path fill-rule="evenodd" clip-rule="evenodd" d="M295.572 115.323L288.878 116.434C287.83 116.611 287.036 115.501 287.531 114.567L290.729 108.585C290.925 108.211 290.925 107.773 290.729 107.39L287.606 101.379C287.12 100.437 287.924 99.3447 288.971 99.522L295.656 100.707C296.068 100.782 296.498 100.642 296.797 100.343L301.556 95.518C302.304 94.762 303.595 95.1913 303.744 96.246L304.688 102.947C304.745 103.367 305.006 103.731 305.38 103.918L311.449 106.951C312.402 107.427 312.393 108.79 311.439 109.257L305.343 112.215C304.96 112.402 304.688 112.766 304.632 113.177L303.613 119.878C303.454 120.933 302.164 121.343 301.416 120.578L296.713 115.706C296.414 115.398 295.993 115.258 295.572 115.323Z" fill="white"/>
<path d="M288.878 116.434L295.572 115.323C295.993 115.258 296.414 115.398 296.713 115.706L301.416 120.578C302.164 121.343 303.454 120.933 303.613 119.878L304.632 113.177C304.688 112.766 304.96 112.402 305.343 112.215L311.439 109.257C312.393 108.79 312.402 107.427 311.449 106.951L305.38 103.918C305.006 103.731 304.745 103.367 304.688 102.947L303.744 96.246C303.595 95.1913 302.304 94.762 301.556 95.518L296.797 100.343C296.498 100.642 296.068 100.782 295.656 100.707L288.971 99.522C287.924 99.3447 287.12 100.437 287.606 101.379L290.729 107.39C290.925 107.773 290.925 108.211 290.729 108.585L287.531 114.567C287.036 115.501 287.83 116.611 288.878 116.434Z" stroke="#001451" stroke-width="2.126"/>
<path fill-rule="evenodd" clip-rule="evenodd" d="M129.079 223.796C126.498 223.796 124.404 225.887 124.404 228.463C124.404 231.039 126.498 233.13 129.079 233.13C131.659 233.13 133.754 231.039 133.754 228.463C133.754 225.887 131.659 223.796 129.079 223.796Z" fill="white"/>
<path d="M129.079 223.796C126.498 223.796 124.404 225.887 124.404 228.463C124.404 231.039 126.498 233.13 129.079 233.13C131.659 233.13 133.754 231.039 133.754 228.463C133.754 225.887 131.659 223.796 129.079 223.796Z" stroke="#001451" stroke-width="2.126"/>
<path fill-rule="evenodd" clip-rule="evenodd" d="M143.414 112.856C139.721 112.856 136.729 115.842 136.729 119.529C136.729 123.206 139.721 126.193 143.414 126.193C147.098 126.193 150.09 123.206 150.09 119.529C150.09 115.842 147.098 112.856 143.414 112.856Z" fill="#001451"/>
<path d="M76.3091 89.8377L84.1444 95.1857M86.9026 73.7919L92.7464 81.2585M104.954 64.2261L105.431 73.6901" stroke="#001451" stroke-width="2"/>
</svg>
