<svg width="40" height="40" viewBox="0 0 40 40" fill="none" xmlns="http://www.w3.org/2000/svg">
<path d="M3.33331 27.5C3.33331 26.5795 4.0795 25.8333 4.99998 25.8333H9.99998V20L20 13.3333L30 20V25.8333H35C35.9205 25.8333 36.6666 26.5795 36.6666 27.5V35C36.6666 35.9205 35.9205 36.6667 35 36.6667H3.33331V27.5Z" stroke="#001451" stroke-width="1.5" stroke-linejoin="round"/>
<path d="M20 5V13.3333" stroke="#001451" stroke-width="1.5" stroke-linecap="round"/>
<path d="M30 9.99983V4.99987C30 4.99987 28.75 7.49987 25 4.99987C21.25 2.49987 20 4.99987 20 4.99987V9.99983C20 9.99983 21.25 7.49987 25 9.99983C28.75 12.4998 30 9.99983 30 9.99983Z" stroke="#001451" stroke-width="1.5" stroke-linecap="round" stroke-linejoin="round"/>
<path d="M23.3334 36.6667V25.8333H16.6667V36.6667" stroke="#001451" stroke-width="1.5" stroke-linecap="round" stroke-linejoin="round"/>
<path d="M15 36.6667H25" stroke="#001451" stroke-width="1.5" stroke-linecap="round" stroke-linejoin="round"/>
</svg>
