<svg width="374" height="280" viewBox="0 0 374 280" fill="none" xmlns="http://www.w3.org/2000/svg">
<path d="M73.3788 227.218C60.4384 221.31 51.5279 212.761 48.1806 201.822C38.9428 171.582 75.3143 132.783 132.677 107.807" stroke="#001451" stroke-width="2.126"/>
<path fill-rule="evenodd" clip-rule="evenodd" d="M276.689 101.554C274.108 101.554 272.014 103.645 272.014 106.221C272.014 108.797 274.108 110.887 276.689 110.887C279.27 110.887 281.364 108.797 281.364 106.221C281.364 103.645 279.27 101.554 276.689 101.554Z" fill="#001451"/>
<path d="M164.679 96.1016C165.371 95.8963 166.072 95.6816 166.773 95.4763C241.059 73.4309 309.548 83.8283 320.3 119.015C323.797 130.467 320.758 143.142 312.512 155.835" stroke="#001451" stroke-width="2.126"/>
<path d="M53.4053 204.433C55.7054 193.522 62.587 182.126 73.1338 171.066C76.2287 167.809 79.6601 164.579 83.3814 161.406C94.0404 152.287 107.121 143.607 122.072 135.851C136.564 128.319 152.805 121.674 170.29 116.345C194.413 108.999 217.984 105.079 239.218 104.305C247.119 104.015 254.692 104.165 261.864 104.743M288.792 109.476C308.155 115.132 321.619 125.222 325.911 139.259C331.502 157.571 320.385 179.01 298.011 198.61C295.299 200.999 292.41 203.36 289.371 205.666C284.042 209.744 278.235 213.702 271.999 217.5L270.653 218.312L270.625 218.322C269.727 218.863 268.82 219.395 267.894 219.927C258.451 225.424 248.1 230.539 237.011 235.14C225.148 240.063 212.977 244.209 200.574 247.554C187.671 251.054 174.993 253.574 162.819 255.151C151.262 256.644 140.155 257.288 129.748 257.12C129.636 257.12 129.533 257.12 129.43 257.111C127.411 257.074 125.41 257.008 123.446 256.906C118.591 256.681 113.749 256.236 108.935 255.571C104.138 254.918 99.5663 254.04 95.2559 252.958C89.7207 251.576 84.5969 249.859 79.9874 247.806C70.6935 243.69 63.4098 238.258 58.6881 231.584C56.6124 228.644 55.0229 225.471 53.985 222.055" stroke="#001451" stroke-width="2.126"/>
<path fill-rule="evenodd" clip-rule="evenodd" d="M301.262 158.172L311.35 166.292L299.261 170.949L301.262 158.172Z" fill="#DD3568"/>
<path d="M311.35 166.292L301.262 158.172L299.261 170.949L311.35 166.292Z" stroke="#D12A5D" stroke-width="2.126"/>
<path fill-rule="evenodd" clip-rule="evenodd" d="M205.299 240.993C202.718 240.993 200.624 243.084 200.624 245.66C200.624 248.236 202.718 250.327 205.299 250.327C207.88 250.327 209.974 248.236 209.974 245.66C209.974 243.084 207.88 240.993 205.299 240.993Z" fill="white"/>
<path d="M205.299 240.993C202.718 240.993 200.624 243.084 200.624 245.66C200.624 248.236 202.718 250.327 205.299 250.327C207.88 250.327 209.974 248.236 209.974 245.66C209.974 243.084 207.88 240.993 205.299 240.993Z" stroke="#001451" stroke-width="2.126"/>
<path fill-rule="evenodd" clip-rule="evenodd" d="M84.1472 223.764L96.8351 178.731L130.308 170.209C131.337 166.859 135.208 164.208 138.966 164.208H234.776C238.525 164.208 242.405 166.859 243.434 170.209L259.235 221.953C259.867 224.017 261.087 226.059 262.14 227.826C264.005 230.948 265.354 233.209 262.04 233.209L187.755 228.123L148.008 226.331C148.008 226.331 119.63 231.212 113.17 230.493C110.346 230.185 83.8854 224.623 84.1472 223.764Z" fill="#AFAEB4"/>
<path fill-rule="evenodd" clip-rule="evenodd" d="M111.166 140.782L82.5081 213.778L111.961 229.85L137.552 146.382L111.166 140.782Z" fill="white"/>
<path d="M111.166 140.782L82.5081 213.778L111.961 229.85L137.552 146.382L111.166 140.782Z" stroke="#001451" stroke-width="2.126"/>
<path fill-rule="evenodd" clip-rule="evenodd" d="M239.817 110.016C249.13 108.812 258.106 111.304 265.268 116.344C265.823 116.734 266.518 117.191 267.316 117.718C276.63 123.851 300.057 139.279 280.845 165.101C272.701 176.04 247.269 183.254 233.973 184.972C225.076 186.124 214.088 183.229 203.696 180.492C195.73 178.393 188.115 176.387 182.062 176.366C154.152 176.264 170.356 136.485 174.405 130.614C174.769 130.073 175.153 129.541 175.555 129.018C181.221 121.692 189.664 116.502 199.537 115.224L239.817 110.016Z" fill="white"/>
<path d="M265.268 116.344C258.106 111.304 249.13 108.812 239.817 110.016L199.537 115.224C189.664 116.502 181.221 121.692 175.555 129.018C175.153 129.541 174.769 130.073 174.405 130.614C170.356 136.485 154.152 176.264 182.062 176.366C196.012 176.413 218.256 187.006 233.973 184.972C247.269 183.254 272.701 176.04 280.845 165.101C301.705 137.064 272.299 121.281 265.268 116.344Z" stroke="#001451" stroke-width="2.126"/>
<path fill-rule="evenodd" clip-rule="evenodd" d="M206.069 151.571L237.98 149.251C240.908 149.038 243.122 146.491 242.909 143.569L242.74 141.241C242.637 139.834 241.978 138.526 240.909 137.603C239.84 136.681 238.447 136.22 237.037 136.322L205.126 138.641C203.716 138.744 202.405 139.401 201.481 140.469C200.557 141.536 200.095 142.926 200.197 144.333L200.368 146.66C200.581 149.583 203.141 151.783 206.069 151.571Z" fill="#AFAEB4"/>
<path d="M243.42 136.852L200.874 139.944L201.673 150.899L244.219 147.806L243.42 136.852Z" stroke="#001451" stroke-width="2.126"/>
<path fill-rule="evenodd" clip-rule="evenodd" d="M198.824 150.924L203.743 150.187C204.373 150.093 204.979 149.876 205.525 149.548C206.071 149.22 206.547 148.788 206.926 148.277C207.305 147.765 207.579 147.184 207.733 146.567C207.887 145.949 207.917 145.308 207.822 144.679L204.162 120.311C203.97 119.041 203.281 117.899 202.247 117.135C201.212 116.371 199.915 116.049 198.643 116.239L191.856 117.255C191.471 117.311 191.101 117.444 190.768 117.644C190.434 117.845 190.144 118.11 189.913 118.423C189.68 118.735 189.512 119.089 189.418 119.467C189.324 119.844 189.305 120.236 189.365 120.62L193.306 146.852C193.4 147.481 193.617 148.085 193.946 148.63C194.274 149.176 194.707 149.651 195.22 150.029C195.732 150.407 196.314 150.681 196.933 150.834C197.551 150.988 198.194 151.018 198.824 150.924Z" fill="#DCDDDD"/>
<path d="M204.571 116.355L190.056 118.528L194.86 150.51L209.376 148.337L204.571 116.355Z" stroke="#001451" stroke-width="2.126"/>
<path fill-rule="evenodd" clip-rule="evenodd" d="M241.825 144.731H246.799C248.086 144.731 249.32 144.22 250.23 143.312C251.14 142.403 251.651 141.172 251.652 139.887V112.615C251.652 111.392 250.66 110.403 249.436 110.403H239.936C239.151 110.403 238.393 110.711 237.842 111.271C237.281 111.822 236.972 112.578 236.972 113.362V139.887C236.973 141.172 237.484 142.403 238.394 143.312C239.304 144.22 240.538 144.731 241.825 144.731Z" fill="#DCDDDD"/>
<path d="M252.644 111.396H237.966V143.736H252.644V111.396Z" stroke="#001451" stroke-width="2.126"/>
<path fill-rule="evenodd" clip-rule="evenodd" d="M250.284 148.907C242.92 150.71 238.832 159.813 241.147 169.231C243.464 178.658 251.308 184.838 258.672 183.034C266.036 181.23 270.124 172.128 267.807 162.701C265.492 153.282 257.648 147.103 250.284 148.907Z" fill="white"/>
<path d="M250.284 148.907C242.92 150.71 238.832 159.813 241.147 169.231C243.464 178.658 251.308 184.838 258.672 183.034C266.036 181.23 270.124 172.128 267.807 162.701C265.492 153.282 257.648 147.103 250.284 148.907Z" stroke="#001451" stroke-width="2.126"/>
<path fill-rule="evenodd" clip-rule="evenodd" d="M221.656 119.219L224.072 118.212C225.538 117.603 226.701 116.437 227.306 114.972C227.907 113.505 227.9 111.859 227.286 110.397L221.688 97.0237C221.386 96.2991 220.944 95.641 220.387 95.0871C219.83 94.5331 219.169 94.0942 218.442 93.7953C217.714 93.498 216.935 93.3466 216.149 93.35C215.363 93.3534 214.585 93.5113 213.86 93.8149L211.445 94.822C210.719 95.1236 210.059 95.565 209.504 96.121C208.95 96.677 208.51 97.3368 208.21 98.0625C207.912 98.7889 207.761 99.5667 207.764 100.352C207.767 101.137 207.926 101.913 208.23 102.637L213.828 116.011C214.13 116.735 214.572 117.393 215.129 117.947C215.686 118.501 216.346 118.94 217.073 119.239C217.801 119.536 218.58 119.688 219.366 119.684C220.153 119.681 220.931 119.523 221.656 119.219Z" fill="white"/>
<path d="M220.682 92.0453L207.223 97.6584L216.669 120.225L230.127 114.612L220.682 92.0453Z" stroke="#001451" stroke-width="2.126"/>
<path fill-rule="evenodd" clip-rule="evenodd" d="M227.562 113.629L227.787 111.575L243.541 109.718C242.793 117.343 239.044 124.633 233.266 129.682C233.144 129.785 233.013 129.897 232.845 129.925C232.536 129.981 232.265 129.71 232.06 129.458C229.231 126.027 226.674 122.383 224.411 118.557C224.411 118.557 227.328 115.691 227.562 113.629Z" fill="white"/>
<path d="M227.787 111.575L227.562 113.629C227.328 115.691 224.411 118.557 224.411 118.557C226.674 122.383 229.236 126.033 232.06 129.458C232.265 129.71 232.536 129.981 232.845 129.925C233.013 129.897 233.144 129.785 233.266 129.682C239.044 124.633 242.793 117.343 243.541 109.718L227.787 111.575Z" stroke="#001451" stroke-width="2"/>
<path fill-rule="evenodd" clip-rule="evenodd" d="M214.53 133.017C214.362 133.035 214.203 132.97 214.053 132.895C207.078 129.713 201.393 123.795 198.495 116.702L197.831 115.918L211.856 113.631C211.856 113.631 212.408 113.911 213.698 116.189C214.998 118.466 219.355 119.717 219.355 119.717C218.283 124.029 216.876 128.251 215.147 132.345C215.026 132.643 214.848 132.979 214.53 133.017Z" fill="white"/>
<path d="M214.053 132.895C214.203 132.97 214.362 133.035 214.53 133.017C214.848 132.979 215.026 132.643 215.147 132.345C216.877 128.257 218.28 124.029 219.355 119.717C219.355 119.717 214.998 118.466 213.698 116.189C212.408 113.911 211.856 113.631 211.856 113.631L197.831 115.918L198.495 116.702C201.393 123.795 207.078 129.713 214.053 132.895Z" stroke="#001451" stroke-width="2"/>
<path d="M201.37 115.794C204.297 122.001 209.57 127.078 215.816 129.691M231.118 127.299C236.204 122.894 239.683 116.659 240.655 110.219" stroke="#001451" stroke-width="2"/>
<path fill-rule="evenodd" clip-rule="evenodd" d="M213.208 142.154L236.892 147.586C237.378 147.698 237.761 148.053 237.911 148.529L263.343 229.486C263.717 230.653 262.492 231.698 261.389 231.147L224.83 213.134C224.653 213.045 224.458 212.996 224.259 212.99C224.061 212.983 223.863 213.02 223.68 213.097L189.085 227.358C188.748 227.498 188.365 227.498 188.029 227.358L152.91 213.078C152.734 213.007 152.546 212.972 152.356 212.975C152.167 212.979 151.98 213.02 151.807 213.097L113.163 230.494C112.069 230.989 110.9 229.962 111.256 228.814L135.865 147.838C136.005 147.371 136.379 147.017 136.847 146.895L159.866 140.829C160.109 140.763 160.353 140.763 160.586 140.829L189.029 148.333C189.272 148.398 189.515 148.398 189.758 148.333L212.526 142.163C212.75 142.107 212.984 142.098 213.208 142.154Z" fill="white"/>
<path d="M236.892 147.586L213.208 142.154C212.984 142.098 212.75 142.107 212.526 142.163L189.758 148.333C189.515 148.398 189.272 148.398 189.029 148.333L160.586 140.829C160.353 140.763 160.109 140.763 159.866 140.829L136.847 146.895C136.379 147.017 136.005 147.371 135.865 147.838L111.256 228.814C110.9 229.962 112.069 230.989 113.163 230.494L151.807 213.097C152.153 212.938 152.555 212.938 152.91 213.078L188.029 227.358C188.365 227.498 188.748 227.498 189.085 227.358L223.68 213.097C224.045 212.938 224.465 212.957 224.83 213.134L261.389 231.147C262.492 231.698 263.717 230.653 263.343 229.486L237.911 148.529C237.761 148.053 237.378 147.698 236.892 147.586Z" stroke="#001451" stroke-width="2.126"/>
<path fill-rule="evenodd" clip-rule="evenodd" d="M172.337 78.148C170.196 57.7173 184.277 39.4987 203.8 37.4547C223.323 35.4107 239.919 50.4467 243.033 70.756C246.567 93.7627 231.093 109.415 211.57 111.449C192.047 113.493 174.479 98.588 172.337 78.148Z" fill="#001451"/>
<path d="M203.8 37.4547C184.277 39.4987 170.196 57.7173 172.337 78.148C174.479 98.588 192.047 113.493 211.57 111.449C231.093 109.415 246.567 93.7627 243.033 70.756C239.919 50.4467 223.323 35.4107 203.8 37.4547Z" stroke="#001451" stroke-width="2.126"/>
<path fill-rule="evenodd" clip-rule="evenodd" d="M218.168 56.5759C218.477 56.0065 219.206 55.7919 219.786 56.1092C233.699 63.5852 241.3 79.0505 238.738 94.5821C233.175 103.374 223.301 109.739 211.52 110.971C208.369 111.298 205.284 111.242 202.301 110.841C201.853 110.775 201.404 110.71 200.955 110.635C200.918 110.626 200.889 110.617 200.852 110.617C192.737 109.102 185.355 104.943 179.861 98.7915C179.787 98.7075 179.721 98.6235 179.646 98.5395C175.888 93.9755 173.419 88.4221 172.774 82.2715C172.55 80.1528 172.55 78.0435 172.774 75.9901C177.225 76.7835 181.778 76.9421 186.275 76.4568C196.027 75.4395 204.592 71.6688 210.679 66.3581C213.821 63.6795 216.354 60.3755 218.131 56.6515C218.14 56.6328 218.15 56.6039 218.168 56.5759Z" fill="white"/>
<path d="M219.786 56.1092C219.206 55.7919 218.477 56.0065 218.168 56.5759C218.15 56.6039 218.14 56.6319 218.131 56.6505C216.354 60.3745 213.821 63.6785 210.679 66.3572C204.592 71.6679 196.027 75.4385 186.275 76.4559C181.778 76.9412 177.225 76.7825 172.774 75.9892C172.55 78.0425 172.55 80.1519 172.774 82.2705C173.419 88.4212 175.888 93.9755 179.646 98.5395C179.721 98.6235 179.787 98.7075 179.861 98.7915C185.355 104.943 192.737 109.102 200.852 110.617C200.889 110.617 200.918 110.626 200.955 110.635C201.404 110.71 201.853 110.775 202.301 110.841C205.284 111.242 208.369 111.298 211.52 110.971C223.301 109.739 233.175 103.374 238.738 94.5821C241.3 79.0515 233.699 63.5852 219.786 56.1092Z" stroke="#001451" stroke-width="2.126"/>
<path fill-rule="evenodd" clip-rule="evenodd" d="M240.273 65.4295C238.28 65.4295 236.368 66.2201 234.958 67.6273C233.548 69.0346 232.756 70.9433 232.756 72.9335C232.756 77.0681 236.122 80.4281 240.273 80.4281C244.416 80.4281 247.782 77.0681 247.782 72.9335C247.782 68.7895 244.416 65.4295 240.273 65.4295Z" fill="white"/>
<path d="M240.273 65.4295C238.28 65.4295 236.368 66.2201 234.958 67.6273C233.548 69.0346 232.756 70.9433 232.756 72.9335C232.756 77.0681 236.122 80.4281 240.273 80.4281C244.416 80.4281 247.782 77.0681 247.782 72.9335C247.782 68.7895 244.416 65.4295 240.273 65.4295Z" stroke="#001451" stroke-width="2.126"/>
<path fill-rule="evenodd" clip-rule="evenodd" d="M237.865 70.8279C238.594 77.6319 236.388 84.7719 233.022 91.0159C232.414 92.1359 230.712 91.5572 230.89 90.2972C232.816 76.9132 232.554 64.0145 220.736 57.2385C220.698 57.2199 220.661 57.1919 220.624 57.1732C219.586 56.6599 218.323 57.0799 217.8 58.1065C216.043 61.4977 213.646 64.5179 210.741 67.0012C204.654 72.3119 196.089 76.0732 186.346 77.0999C184.634 77.2753 178.694 77.2119 176.458 77.1876L176.071 77.1839C173.546 92.3104 178.329 97.412 180.944 100.201C181.274 100.553 181.57 100.868 181.812 101.161C175.248 95.0983 171.119 86.8569 170.199 77.9772C170.124 77.3239 170.087 76.6705 170.049 76.0265C169.142 75.8025 168.254 75.5505 167.385 75.2705C166.319 74.9345 165.29 74.5612 164.29 74.1412C163.417 73.7718 162.691 73.1255 162.223 72.3025C161.036 70.2119 161.765 67.5612 163.86 66.3852C166.637 64.7892 169.582 63.5012 172.639 62.5492C179.353 43.9759 199.362 33.7932 218.37 39.2812C232.872 43.4439 236.266 55.8385 237.865 70.8279Z" fill="#001451"/>
<path d="M233.022 91.0159C236.388 84.7719 238.594 77.6319 237.865 70.8279C236.266 55.8385 232.872 43.4439 218.37 39.2812C199.362 33.7932 179.353 43.9759 172.639 62.5492C169.582 63.5012 166.637 64.7892 163.86 66.3852C161.765 67.5612 161.036 70.2119 162.223 72.3025C162.691 73.1239 163.411 73.7679 164.29 74.1412C165.29 74.5612 166.319 74.9345 167.385 75.2705C168.254 75.5505 169.142 75.8025 170.049 76.0265C170.087 76.6705 170.124 77.3239 170.199 77.9772C171.115 86.8532 175.248 95.0945 181.812 101.161C179.652 98.5385 173.228 94.2172 176.071 77.1839C177.903 77.2025 184.523 77.2865 186.346 77.0999C196.089 76.0732 204.654 72.3119 210.741 67.0012C213.646 64.5179 216.043 61.4977 217.8 58.1065C218.323 57.0799 219.586 56.6599 220.624 57.1732C220.661 57.1919 220.698 57.2199 220.736 57.2385C232.554 64.0145 232.816 76.9132 230.89 90.2972C230.712 91.5572 232.414 92.1359 233.022 91.0159Z" stroke="#001451"/>
<path d="M199.445 90.5968L199.22 93.1075C199.155 93.8261 199.099 94.6008 199.445 95.2355C199.8 95.8795 200.716 96.2528 201.277 95.7861" stroke="#001451" stroke-width="1.5"/>
<path fill-rule="evenodd" clip-rule="evenodd" d="M168.987 72.5331C168.43 72.5331 167.879 72.6426 167.365 72.8553C166.85 73.068 166.383 73.3798 165.989 73.7728C165.595 74.1658 165.283 74.6324 165.07 75.146C164.857 75.6595 164.747 76.2099 164.747 76.7657C164.747 77.3216 164.857 77.872 165.07 78.3855C165.283 78.899 165.595 79.3657 165.989 79.7587C166.383 80.1517 166.85 80.4635 167.365 80.6762C167.879 80.8889 168.43 80.9984 168.987 80.9984C171.325 80.9984 173.223 79.1037 173.223 76.7704C173.223 74.4277 171.325 72.5331 168.987 72.5331ZM232.009 23.3333C224.744 23.3333 218.863 29.204 218.863 36.456C218.863 43.6987 224.744 49.5693 232.009 49.5693C239.265 49.5693 245.146 43.6987 245.146 36.456C245.146 29.204 239.265 23.3333 232.009 23.3333Z" fill="#001451"/>
<path fill-rule="evenodd" clip-rule="evenodd" d="M113.981 227.448L137.337 148.32L160.039 142.496L152.344 210.125L113.981 227.448ZM188.294 226.329L190.491 149.571L213.932 142.935L223.628 212.077L188.294 226.329Z" fill="#D7D9DD"/>
<path d="M152.75 206.591L160.034 144.851M213.568 147.425L222.694 208.166" stroke="#001451" stroke-width="2.126"/>
<path d="M211.87 73.9723C207.139 73.9723 203.305 77.7989 203.305 82.5216C203.305 87.2349 207.139 91.0616 211.87 91.0616C216.592 91.0616 220.425 87.2349 220.425 82.5216C220.425 77.7989 216.592 73.9723 211.87 73.9723ZM187.051 82.5188C182.319 82.5188 178.486 86.3455 178.486 91.0681C178.486 95.7815 182.319 99.6081 187.051 99.6081C191.772 99.6081 195.606 95.7815 195.606 91.0681C195.606 86.3455 191.772 82.5188 187.051 82.5188Z" stroke="#001451" stroke-width="1.5"/>
<path d="M193.558 85.8312C195.063 82.4619 199.486 81.1645 203.432 82.9379" stroke="#001451" stroke-width="1.5"/>
<path fill-rule="evenodd" clip-rule="evenodd" d="M187.707 91.7625L187.386 90.9963C187.194 90.5314 186.824 90.1618 186.359 89.9687C185.892 89.7793 185.368 89.7826 184.904 89.978L184.135 90.2991C183.669 90.4916 183.299 90.8609 183.106 91.3257C182.917 91.7918 182.92 92.3137 183.116 92.7771L183.437 93.5443C183.631 94.0091 184 94.3815 184.465 94.5719C184.932 94.7609 185.456 94.7572 185.92 94.5616L186.688 94.2415C186.918 94.1462 187.128 94.0065 187.305 93.8304C187.481 93.6542 187.622 93.445 187.717 93.2148C187.811 92.9839 187.859 92.7368 187.857 92.4876C187.855 92.2385 187.804 91.9921 187.707 91.7625ZM212.727 83.4755L212.407 82.7101C212.214 82.2449 211.845 81.8749 211.379 81.6816C210.912 81.4922 210.388 81.4955 209.923 81.6909L209.156 82.012C208.69 82.2046 208.32 82.5738 208.126 83.0387C207.937 83.5048 207.941 84.0266 208.137 84.49L208.457 85.2572C208.652 85.722 209.02 86.0944 209.485 86.2839C209.952 86.4733 210.476 86.47 210.941 86.2745L211.708 85.9544C212.174 85.7619 212.544 85.3926 212.738 84.9277C212.927 84.4614 212.923 83.9391 212.727 83.4755Z" fill="#001451"/>
<path d="M218.859 77.6067L234.904 67.956" stroke="#001451"/>
<path fill-rule="evenodd" clip-rule="evenodd" d="M234.994 144.277C234.472 143.731 233.847 143.293 233.155 142.988C232.463 142.684 231.718 142.518 230.961 142.5C230.205 142.483 229.453 142.615 228.747 142.887C228.042 143.16 227.398 143.569 226.851 144.091C226.608 144.315 226.392 144.557 226.196 144.819C225.386 145.907 224.989 147.247 225.075 148.6C225.16 149.953 225.723 151.232 226.664 152.211L233.05 158.371L242.886 152.211L234.994 144.277Z" fill="white"/>
<path d="M234.994 144.277C234.472 143.731 233.847 143.293 233.155 142.988C232.463 142.684 231.718 142.518 230.961 142.5C230.205 142.483 229.453 142.615 228.747 142.887C228.042 143.16 227.398 143.569 226.851 144.091C226.608 144.315 226.392 144.557 226.196 144.819C225.386 145.907 224.989 147.247 225.075 148.6C225.16 149.953 225.723 151.232 226.664 152.211L233.05 158.371L242.886 152.211L234.994 144.277Z" stroke="#001451" stroke-width="2.126"/>
<path fill-rule="evenodd" clip-rule="evenodd" d="M235.294 192.409L217.417 184.887L246.186 118.275L249.992 119.88L264.045 125.807L235.294 192.409Z" fill="#DD3568"/>
<path d="M217.417 184.887L235.294 192.409L264.045 125.807L249.992 119.88L246.186 118.275L217.417 184.887Z" stroke="#D12A5D" stroke-width="2.126"/>
<path fill-rule="evenodd" clip-rule="evenodd" d="M252.194 120.783L258.14 123.293L229.314 189.868L223.358 187.357L252.194 120.783Z" fill="#D12A5D"/>
<path fill-rule="evenodd" clip-rule="evenodd" d="M217.153 185.57L235.021 193.093L224.371 200.727L219.013 198.478L217.153 185.57Z" fill="#DCDDDD"/>
<path d="M235.021 193.093L217.153 185.57L219.013 198.478L224.371 200.727L235.021 193.093Z" stroke="#D12A5D" stroke-width="2.126"/>
<path fill-rule="evenodd" clip-rule="evenodd" d="M219.887 203.917L219.083 198.383L224.45 200.641L219.887 203.917Z" fill="white"/>
<path d="M219.083 198.383L219.887 203.917L224.45 200.641L219.083 198.383Z" stroke="#D12A5D" stroke-width="2.126"/>
<path fill-rule="evenodd" clip-rule="evenodd" d="M220.383 152.505C220.374 152.262 220.393 152.01 220.439 151.777C221.075 148.239 221.702 145.934 225.47 146.559L243.824 149.583C254.221 151.301 261.271 160.877 259.485 170.873L259.223 172.319C257.886 179.823 252.052 184.929 243.609 185.218C242.44 185.265 241.262 185.171 240.102 185.022C236.989 184.621 229.958 183.585 227.003 182.119C223.263 180.271 222.122 178.498 221.215 174.475C221.169 174.27 221.141 174.046 221.141 173.831L220.383 152.505Z" fill="white"/>
<path d="M220.439 151.777C220.393 152.01 220.374 152.262 220.383 152.505L221.141 173.831C221.141 174.046 221.169 174.27 221.215 174.475C222.122 178.498 223.263 180.271 227.003 182.119C229.958 183.585 236.989 184.621 240.102 185.022C241.262 185.171 242.44 185.265 243.609 185.218C252.052 184.929 257.886 179.823 259.223 172.319L259.485 170.873C261.271 160.877 254.221 151.301 243.824 149.583L225.47 146.559C221.702 145.934 221.075 148.239 220.439 151.777Z" stroke="#001451" stroke-width="2.126"/>
<path fill-rule="evenodd" clip-rule="evenodd" d="M223.254 146.419C220.252 145.933 217.401 147.875 216.886 150.759C216.84 151.067 216.812 151.365 216.812 151.664C216.812 154.193 218.719 156.443 221.412 156.881L229.845 157.917L233.866 147.94L223.254 146.419Z" fill="white"/>
<path d="M223.254 146.419C220.252 145.933 217.401 147.875 216.886 150.759C216.84 151.067 216.812 151.365 216.812 151.664C216.812 154.193 218.719 156.443 221.412 156.881L229.845 157.917L233.866 147.94L223.254 146.419Z" stroke="#001451" stroke-width="2.126"/>
<path fill-rule="evenodd" clip-rule="evenodd" d="M222.328 156.691C219.86 156.28 217.513 157.885 217.092 160.265C217.045 160.508 217.027 160.76 217.027 161.003C217.027 163.093 218.597 164.941 220.813 165.296L227.779 165.968L232.024 158.268L222.328 156.691Z" fill="white"/>
<path d="M222.328 156.691C219.86 156.28 217.513 157.885 217.092 160.265C217.045 160.508 217.027 160.76 217.027 161.003C217.027 163.093 218.597 164.941 220.813 165.296L227.779 165.968L232.024 158.268L222.328 156.691Z" stroke="#001451" stroke-width="2.126"/>
<path fill-rule="evenodd" clip-rule="evenodd" d="M223.029 165.2C220.682 164.817 218.457 166.339 218.064 168.588C218.018 168.831 217.999 169.064 217.999 169.297C217.999 171.276 219.486 173.021 221.589 173.367L227.611 174.347L229.406 166.236L223.029 165.2Z" fill="white"/>
<path d="M223.029 165.2C220.682 164.817 218.457 166.339 218.064 168.588C218.018 168.831 217.999 169.064 217.999 169.297C217.999 171.276 219.486 173.021 221.589 173.367L227.611 174.347L229.406 166.236L223.029 165.2Z" stroke="#001451" stroke-width="2.126"/>
<path fill-rule="evenodd" clip-rule="evenodd" d="M225.185 173.613C222.839 173.23 220.613 174.752 220.221 177.001C220.174 177.244 220.155 177.477 220.155 177.71C220.155 179.689 221.642 181.434 223.736 181.78L232.815 183.889L228.888 174.21L225.185 173.613Z" fill="white"/>
<path d="M225.185 173.613C222.839 173.23 220.613 174.752 220.221 177.001C220.174 177.244 220.155 177.477 220.155 177.71C220.155 179.689 221.642 181.434 223.736 181.78L232.815 183.889L228.888 174.21L225.185 173.613Z" stroke="#001451" stroke-width="2.126"/>
<path d="M248.341 194.825C239.776 201.312 226.088 209.096 210.529 205.036C192.353 200.294 185.789 183.102 166.781 176.168C157.898 172.929 144.051 171.109 125.07 181.413C125.07 181.413 110.129 183.989 104.033 174.824" stroke="#001451" stroke-width="1.417" stroke-dasharray="2.83 5.67"/>
<path d="M116.287 209.637C118.428 211.662 121.729 212.064 124.58 211.354C127.441 210.645 129.966 208.984 132.36 207.276C138.362 203.02 144.131 198.213 148.451 192.314M148.451 192.314C149.311 191.138 150.115 189.925 150.844 188.665C151.798 187.022 152.584 184.773 151.303 183.373C150.368 182.346 148.638 182.346 147.516 183.158C146.403 183.98 145.861 185.408 145.842 186.789M148.451 192.314C150.096 193.845 152.303 194.965 154.463 195.581C156.913 196.272 159.54 196.608 161.999 195.964M148.451 192.314C146.861 190.83 145.805 188.964 145.842 186.789M161.999 195.964C165.505 195.04 168.273 192.23 169.975 189.038C171.667 185.846 172.462 182.262 173.228 178.725M161.999 195.964C160.41 194.48 145.805 188.964 145.842 186.789" stroke="#001451" stroke-width="0.709" stroke-dasharray="2.83 5.67"/>
<path fill-rule="evenodd" clip-rule="evenodd" d="M192.237 181.743L180.475 201.483C179.951 202.361 178.67 202.361 178.146 201.483L166.524 182.014C165.424 179.938 164.849 177.624 164.851 175.275C164.851 167.501 171.003 161.163 178.717 160.855H179.923C187.627 161.173 193.77 167.51 193.77 175.275C193.77 177.609 193.219 179.802 192.237 181.743Z" fill="#DD3568"/>
<path d="M180.475 201.483L192.237 181.743C193.219 179.802 193.77 177.609 193.77 175.275C193.77 167.51 187.627 161.173 179.923 160.855H178.717C171.003 161.163 164.851 167.501 164.851 175.275C164.851 177.711 165.459 179.998 166.524 182.014L178.146 201.483C178.67 202.361 179.951 202.361 180.475 201.483Z" stroke="#D12A5D" stroke-width="2.126"/>
<path fill-rule="evenodd" clip-rule="evenodd" d="M179.312 166.392C174.647 166.392 170.869 170.163 170.869 174.82C170.869 179.477 174.647 183.248 179.312 183.248C183.978 183.248 187.755 179.477 187.755 174.82C187.755 170.163 183.978 166.392 179.312 166.392Z" fill="white"/>
<path fill-rule="evenodd" clip-rule="evenodd" d="M122.022 172.636L115.103 162.36C114.445 161.26 114.063 160.018 113.991 158.739C113.766 154.501 116.926 150.861 121.125 150.469L121.779 150.432C125.987 150.376 129.53 153.652 129.764 157.88C129.829 159.149 129.596 160.372 129.119 161.455L123.284 172.561C123.226 172.674 123.139 172.77 123.032 172.839C122.925 172.908 122.802 172.948 122.675 172.956C122.547 172.963 122.42 172.938 122.306 172.882C122.192 172.826 122.094 172.741 122.022 172.636Z" fill="#DD3568"/>
<path d="M115.103 162.36L122.022 172.636C122.331 173.093 123.023 173.056 123.284 172.561L129.119 161.455C129.596 160.372 129.829 159.149 129.764 157.88C129.53 153.652 125.987 150.376 121.779 150.432L121.125 150.469C116.926 150.861 113.766 154.501 113.991 158.739C114.065 160.064 114.467 161.296 115.103 162.36Z" stroke="#D12A5D" stroke-width="2.126"/>
<path fill-rule="evenodd" clip-rule="evenodd" d="M121.863 153.461C119.32 153.461 117.254 155.524 117.254 158.063C117.254 160.601 119.32 162.664 121.863 162.664C124.406 162.664 126.473 160.601 126.473 158.063C126.473 155.524 124.406 153.461 121.863 153.461ZM205.252 104.553C206.842 103.872 207.655 102.192 207.057 100.801L201.278 103.265C201.877 104.656 203.653 105.234 205.252 104.553Z" fill="white"/>
<path d="M205.252 104.553C206.842 103.872 207.655 102.192 207.057 100.801L201.278 103.265C201.877 104.656 203.653 105.234 205.252 104.553Z" stroke="#001451" stroke-width="1.417"/>
<path fill-rule="evenodd" clip-rule="evenodd" d="M158.745 91.2305C158.745 94.3292 157.576 97.2319 155.548 99.7239L159.475 111.353L149.405 104.661C145.552 106.733 140.793 107.956 135.623 107.956C122.86 107.956 112.509 100.471 112.509 91.2305C112.509 81.9999 122.86 74.5145 135.623 74.5145C148.395 74.5145 158.745 81.9999 158.745 91.2305Z" fill="#D7D9DD"/>
<path fill-rule="evenodd" clip-rule="evenodd" d="M123.676 94.5821C121.825 94.5821 120.329 93.0795 120.329 91.2315C120.329 89.3835 121.825 87.8901 123.676 87.8901C125.537 87.8901 127.033 89.3835 127.033 91.2315C127.033 93.0795 125.537 94.5821 123.676 94.5821ZM135.624 94.5821C133.782 94.5821 132.276 93.0795 132.276 91.2315C132.276 89.3835 133.782 87.8901 135.624 87.8901C137.484 87.8901 138.98 89.3835 138.98 91.2315C138.98 93.0795 137.484 94.5821 135.624 94.5821ZM147.581 94.5821C145.721 94.5821 144.225 93.0795 144.225 91.2315C144.225 89.3835 145.721 87.8901 147.581 87.8901C149.433 87.8901 150.929 89.3835 150.929 91.2315C150.929 93.0795 149.433 94.5821 147.581 94.5821Z" fill="white"/>
</svg>
