<svg width="374" height="280" viewBox="0 0 374 280" fill="none" xmlns="http://www.w3.org/2000/svg">
<path d="M281.7 122.41C303.84 131.641 319.857 144.073 326.505 158.176M79.4124 129.356C105.49 114.843 144.357 105.64 187.76 105.64C212.061 105.64 234.94 108.524 254.94 113.602" stroke="#001451" stroke-width="2.126"/>
<path fill-rule="evenodd" clip-rule="evenodd" d="M104.544 95.8403L124.57 80.8351L105.345 55.2692L85.3197 70.2744L104.544 95.8403Z" fill="white"/>
<path d="M106.273 55.3999L86.2472 70.406L104.677 94.9135L124.703 79.9083L106.273 55.3999Z" stroke="#001451" stroke-width="1.417"/>
<path fill-rule="evenodd" clip-rule="evenodd" d="M100.499 95.3531L123.121 84.6356L109.389 55.7564L86.7689 66.4739L100.499 95.3531Z" fill="#E7E7E7"/>
<path d="M110.273 56.07L87.6516 66.7875L100.815 94.4711L123.436 83.7536L110.273 56.07Z" stroke="#001451" stroke-width="1.417"/>
<path fill-rule="evenodd" clip-rule="evenodd" d="M260.61 173.045L262.349 172.158L263.742 185.766C263.742 185.766 260.909 191.954 245.538 193.942C241.246 194.502 232.289 192.542 231.241 190.386C229.007 185.775 229.465 180.997 229.465 180.997C229.465 180.997 235.243 183.106 244.472 181.557C253.709 180.007 260.61 173.045 260.61 173.045Z" fill="#DCDDDD"/>
<path d="M262.349 172.158L260.61 173.045C260.61 173.045 253.709 180.007 244.472 181.557C235.243 183.106 229.465 180.997 229.465 180.997C229.465 180.997 229.007 185.775 231.241 190.386C232.289 192.542 241.246 194.502 245.538 193.942C260.909 191.954 263.742 185.766 263.742 185.766L262.349 172.158Z" stroke="#001451" stroke-width="2.126"/>
<path fill-rule="evenodd" clip-rule="evenodd" d="M255.752 131.717L270.32 83.1273C271.143 80.374 274.069 78.7967 276.837 79.618L314.124 90.7527C316.883 91.5833 318.463 94.5047 317.64 97.258L305.345 138.297L289.001 147.098L259.268 138.222C256.51 137.401 254.93 134.47 255.752 131.717Z" fill="url(#paint0_linear_274_2467)"/>
<path d="M270.32 83.1273L255.752 131.717C254.93 134.47 256.51 137.401 259.268 138.222L289.001 147.098L305.345 138.297L317.64 97.258C318.463 94.5047 316.883 91.5833 314.124 90.7527L276.837 79.618C274.069 78.7967 271.143 80.374 270.32 83.1273Z" stroke="#001451" stroke-width="1.417"/>
<path fill-rule="evenodd" clip-rule="evenodd" d="M291.634 138.316C291.958 137.236 292.698 136.328 293.692 135.793C294.687 135.257 295.853 135.138 296.935 135.46L305.434 137.999L289.091 146.8L291.634 138.316Z" fill="#E7E7E7"/>
<path d="M296.935 135.46C294.682 134.788 292.307 136.067 291.634 138.316L289.091 146.8L305.434 137.999L296.935 135.46Z" stroke="#001451" stroke-width="1.417"/>
<path fill-rule="evenodd" clip-rule="evenodd" d="M276.975 93.0235L306.634 101.88C306.876 101.952 307.13 101.92 307.35 101.801C307.513 101.713 307.645 101.579 307.731 101.415C307.817 101.252 307.853 101.067 307.834 100.883C307.815 100.699 307.742 100.525 307.625 100.383C307.507 100.24 307.35 100.136 307.173 100.082L277.514 91.2268C277.336 91.1745 277.147 91.1757 276.971 91.2301C276.794 91.2845 276.638 91.3898 276.521 91.5328C276.404 91.6757 276.332 91.85 276.313 92.0336C276.295 92.2173 276.332 92.4022 276.419 92.5652C276.538 92.7864 276.733 92.9516 276.975 93.0235Z" fill="#EEEEEF"/>
<path fill-rule="evenodd" clip-rule="evenodd" d="M276.975 93.0235L290.905 97.1824C291.023 97.2175 291.148 97.2287 291.271 97.2154C291.394 97.2021 291.513 97.1645 291.621 97.1049C291.729 97.0464 291.825 96.9669 291.902 96.871C291.979 96.7752 292.037 96.665 292.071 96.5468C292.141 96.3098 292.115 96.0546 291.997 95.837C291.879 95.6195 291.68 95.4572 291.443 95.3857L277.514 91.2268C277.336 91.1745 277.147 91.1757 276.971 91.2301C276.794 91.2845 276.638 91.3898 276.521 91.5328C276.404 91.6757 276.332 91.85 276.313 92.0336C276.295 92.2173 276.332 92.4022 276.419 92.5652C276.538 92.7864 276.733 92.9516 276.975 93.0235Z" fill="#B3B3B3"/>
<path fill-rule="evenodd" clip-rule="evenodd" d="M273.66 104.086L303.319 112.942C303.561 113.015 303.814 112.983 304.035 112.863C304.197 112.775 304.33 112.64 304.416 112.477C304.502 112.314 304.538 112.128 304.519 111.945C304.5 111.761 304.427 111.587 304.309 111.445C304.191 111.302 304.034 111.198 303.857 111.144L274.198 102.289C273.959 102.217 273.702 102.244 273.483 102.362C273.263 102.48 273.1 102.68 273.028 102.919C272.957 103.157 272.983 103.414 273.102 103.633C273.22 103.852 273.421 104.015 273.66 104.086Z" fill="#EEEEEF"/>
<path fill-rule="evenodd" clip-rule="evenodd" d="M273.66 104.086L281.013 106.282C281.249 106.342 281.498 106.309 281.709 106.189C281.92 106.07 282.077 105.874 282.147 105.642C282.216 105.409 282.193 105.159 282.082 104.944C281.971 104.728 281.781 104.564 281.552 104.485L274.198 102.289C273.959 102.217 273.702 102.244 273.483 102.362C273.263 102.48 273.1 102.68 273.028 102.919C272.957 103.157 272.983 103.414 273.102 103.633C273.22 103.852 273.421 104.015 273.66 104.086Z" fill="#B3B3B3"/>
<path fill-rule="evenodd" clip-rule="evenodd" d="M271.33 111.86L300.99 120.715C301.232 120.788 301.485 120.757 301.706 120.637C301.814 120.579 301.91 120.5 301.987 120.404C302.065 120.308 302.122 120.198 302.156 120.08C302.226 119.843 302.2 119.588 302.082 119.37C301.965 119.152 301.765 118.99 301.528 118.919L271.869 110.062C271.63 109.991 271.373 110.017 271.153 110.136C270.934 110.254 270.771 110.454 270.699 110.692C270.628 110.931 270.654 111.188 270.773 111.407C270.891 111.626 271.092 111.789 271.33 111.86Z" fill="#EEEEEF"/>
<path fill-rule="evenodd" clip-rule="evenodd" d="M271.33 111.86L296.197 119.285C296.439 119.357 296.692 119.326 296.914 119.206C297.076 119.118 297.209 118.983 297.295 118.82C297.381 118.656 297.416 118.471 297.397 118.287C297.378 118.104 297.305 117.93 297.187 117.787C297.07 117.645 296.912 117.541 296.735 117.487L271.869 110.062C271.63 109.991 271.373 110.017 271.153 110.136C270.934 110.254 270.771 110.454 270.699 110.692C270.628 110.931 270.654 111.188 270.773 111.407C270.891 111.626 271.092 111.789 271.33 111.86Z" fill="#B3B3B3"/>
<path fill-rule="evenodd" clip-rule="evenodd" d="M268.016 122.923L297.675 131.778C297.917 131.85 298.171 131.818 298.391 131.7C298.554 131.611 298.686 131.477 298.772 131.314C298.858 131.15 298.894 130.965 298.875 130.781C298.856 130.598 298.783 130.424 298.666 130.281C298.548 130.139 298.391 130.034 298.214 129.981L268.554 121.125C268.377 121.072 268.188 121.073 268.011 121.127C267.834 121.182 267.677 121.287 267.559 121.43C267.442 121.574 267.37 121.748 267.353 121.932C267.335 122.116 267.372 122.302 267.46 122.465C267.579 122.685 267.774 122.85 268.016 122.923Z" fill="#EEEEEF"/>
<path fill-rule="evenodd" clip-rule="evenodd" d="M267.866 122.878L284.662 127.893C284.904 127.965 285.157 127.933 285.378 127.814C285.54 127.726 285.673 127.592 285.759 127.428C285.845 127.265 285.881 127.08 285.862 126.896C285.843 126.712 285.77 126.538 285.652 126.396C285.534 126.253 285.377 126.149 285.2 126.095L268.405 121.08C268.227 121.028 268.038 121.029 267.862 121.084C267.685 121.138 267.528 121.243 267.411 121.386C267.294 121.53 267.222 121.704 267.204 121.888C267.186 122.072 267.223 122.257 267.31 122.42C267.43 122.64 267.624 122.805 267.866 122.878Z" fill="#B3B3B3"/>
<path fill-rule="evenodd" clip-rule="evenodd" d="M259.177 180.225C257.99 180.225 257.017 181.195 257.017 182.381C257.017 182.953 257.245 183.503 257.649 183.909C258.054 184.314 258.604 184.544 259.177 184.546C260.374 184.546 261.347 183.575 261.347 182.381C261.344 181.808 261.114 181.26 260.708 180.856C260.301 180.452 259.751 180.225 259.177 180.225Z" fill="#B5B5B6"/>
<path fill-rule="evenodd" clip-rule="evenodd" d="M144.141 179.9C144.141 179.9 145.562 186.704 143.944 191.567C143.187 193.835 134.201 194.805 129.872 194.805C114.379 194.805 110.396 186.163 110.396 186.163V175.364L112.229 176.017C112.229 176.017 119.971 182.037 129.33 182.383C138.689 182.737 144.141 179.9 144.141 179.9Z" fill="#DCDDDD"/>
<path d="M143.944 191.567C145.562 186.704 144.141 179.9 144.141 179.9C144.141 179.9 138.689 182.737 129.33 182.383C119.971 182.037 112.229 176.017 112.229 176.017L110.396 175.364V186.163C110.396 186.163 114.379 194.805 129.872 194.805C134.201 194.805 143.187 193.835 143.944 191.567Z" stroke="#001451" stroke-width="2.126"/>
<path d="M120.21 181.662C120.837 180.943 121.501 180.243 122.183 179.562C131.804 169.977 145.044 164.022 159.63 164.022H219.143C232.906 164.022 245.481 169.323 254.944 177.994" stroke="#001451" stroke-width="2.126"/>
<path fill-rule="evenodd" clip-rule="evenodd" d="M185.827 174.779H188.622C190.978 174.779 193.241 173.845 194.905 172.184C196.57 170.52 197.505 168.264 197.505 165.912V158.847C197.505 156.495 196.57 154.236 194.905 152.575C193.238 150.913 190.978 149.98 188.622 149.98H185.827C183.47 149.98 181.208 150.913 179.543 152.575C177.878 154.239 176.944 156.495 176.944 158.847V165.912C176.944 168.264 177.879 170.523 179.543 172.184C181.211 173.846 183.47 174.779 185.827 174.779Z" fill="white"/>
<path d="M104.944 216.209C102.934 215.527 100.961 214.827 99.0353 214.109C98.6426 213.959 98.2499 213.81 97.8665 213.661C83.4488 208.154 71.3686 201.331 62.4207 193.585M242.183 224.002C227.709 226.354 203.39 228.613 187.224 228.613C169.889 228.613 150.506 226.69 135.144 224.002M306.348 198.079C297.942 204.173 287.508 209.577 275.493 214.085C273.791 214.72 272.071 215.336 270.313 215.933M198.497 150.972H177.938V173.786H198.497V150.972Z" stroke="#001451" stroke-width="2.126"/>
<path d="M329.91 172.88C329.91 210.018 266.274 240.118 187.762 240.118C154.448 240.118 123.799 234.695 99.5729 225.614C84.6409 220.023 72.1493 213.042 62.9583 205.09C51.8972 195.523 45.614 184.547 45.614 172.88C45.614 166.72 47.3625 160.747 50.6443 155.082" stroke="#001451" stroke-width="2.126"/>
<path d="M183.486 175.536C180.878 179.605 177.97 183.478 174.772 187.1C174.548 187.361 174.239 187.65 173.903 187.576C173.725 187.538 173.585 187.417 173.454 187.296C167.376 181.602 163.571 173.548 163.038 165.241M189.007 175.536C191.606 179.605 194.523 183.478 197.711 187.1C197.945 187.361 198.244 187.65 198.59 187.576C198.759 187.538 198.908 187.417 199.039 187.296C205.117 181.602 208.922 173.548 209.455 165.241" stroke="#001451" stroke-width="2"/>
<path fill-rule="evenodd" clip-rule="evenodd" d="M98.6014 115.498C96.0208 115.498 93.9264 117.589 93.9264 120.165C93.9264 122.741 96.0208 124.831 98.6014 124.831C101.182 124.831 103.276 122.741 103.276 120.165C103.276 117.589 101.182 115.498 98.6014 115.498Z" fill="#001451"/>
<path fill-rule="evenodd" clip-rule="evenodd" d="M115.262 182.385C114.075 182.385 113.102 183.355 113.102 184.541C113.102 185.113 113.33 185.663 113.734 186.068C114.139 186.474 114.688 186.703 115.262 186.706C116.459 186.706 117.431 185.735 117.431 184.541C117.429 183.968 117.199 183.419 116.793 183.015C116.386 182.611 115.836 182.385 115.262 182.385Z" fill="#B5B5B6"/>
<path fill-rule="evenodd" clip-rule="evenodd" d="M69.3966 187.761L61.2621 197.832L56.5964 185.764L69.3966 187.761Z" fill="#DD3568"/>
<path d="M61.2621 197.832L69.3966 187.761L56.5964 185.764L61.2621 197.832Z" stroke="#D12A5D" stroke-width="2.126"/>
<path fill-rule="evenodd" clip-rule="evenodd" d="M326.505 154.604C323.924 154.604 321.83 156.695 321.83 159.271C321.83 161.847 323.924 163.937 326.505 163.937C329.085 163.937 331.18 161.847 331.18 159.271C331.18 156.695 329.085 154.604 326.505 154.604Z" fill="white"/>
<path d="M326.505 154.604C323.924 154.604 321.83 156.695 321.83 159.271C321.83 161.847 323.924 163.937 326.505 163.937C329.085 163.937 331.18 161.847 331.18 159.271C331.18 156.695 329.085 154.604 326.505 154.604Z" stroke="#001451" stroke-width="2.126"/>
<path fill-rule="evenodd" clip-rule="evenodd" d="M185.58 246.102L184.233 239.466C184.149 239.046 183.869 238.701 183.476 238.542L177.24 235.882C176.258 235.462 176.183 234.109 177.109 233.586L183.018 230.254C183.383 230.049 183.626 229.666 183.663 229.246L184.271 222.508C184.364 221.444 185.636 220.949 186.421 221.668L191.414 226.25C191.723 226.54 192.162 226.652 192.574 226.558L199.184 225.046C200.222 224.804 201.082 225.858 200.643 226.829L197.828 232.989C197.651 233.372 197.669 233.82 197.894 234.184L201.372 239.989C201.924 240.904 201.185 242.052 200.128 241.93L193.387 241.156C192.966 241.109 192.546 241.268 192.265 241.585L187.805 246.69C187.113 247.493 185.795 247.148 185.58 246.102Z" fill="white"/>
<path d="M184.233 239.466L185.58 246.102C185.795 247.148 187.113 247.493 187.805 246.69L192.265 241.585C192.546 241.268 192.966 241.109 193.387 241.156L200.128 241.93C201.185 242.052 201.924 240.904 201.372 239.989L197.894 234.184C197.669 233.82 197.651 233.372 197.828 232.989L200.643 226.829C201.082 225.858 200.222 224.804 199.184 225.046L192.574 226.558C192.162 226.652 191.723 226.54 191.414 226.25L186.421 221.668C185.636 220.949 184.364 221.444 184.271 222.508L183.663 229.246C183.626 229.666 183.383 230.049 183.018 230.254L177.109 233.586C176.183 234.109 176.258 235.462 177.24 235.882L183.476 238.542C183.869 238.701 184.149 239.046 184.233 239.466Z" stroke="#001451" stroke-width="2.126"/>
<path fill-rule="evenodd" clip-rule="evenodd" d="M226.518 138.954C217.532 150.322 202.918 157.723 186.416 157.723C182.012 157.723 177.739 157.191 173.672 156.202C173.054 156.052 172.437 155.884 171.83 155.716C171.783 155.707 171.736 155.688 171.689 155.679C160.525 152.375 150.951 145.44 144.331 136.256C144.247 136.127 144.16 135.999 144.069 135.874C139.525 129.014 136.907 120.95 136.907 112.344C136.907 109.367 137.225 106.455 137.824 103.636C143.882 105.388 150.16 106.264 156.468 106.24C170.128 106.24 182.545 102.264 191.736 95.7871C196.486 92.5391 200.478 88.3204 203.479 83.4204C203.498 83.3924 203.517 83.3644 203.545 83.3271C204.059 82.5711 205.088 82.3844 205.854 82.9071C224.04 95.2737 232.324 117.804 226.518 138.954Z" fill="white"/>
<path d="M186.416 157.723C202.918 157.723 217.532 150.322 226.518 138.954C232.324 117.804 224.04 95.2737 205.854 82.9071C205.088 82.3844 204.059 82.5711 203.545 83.3271C203.517 83.3644 203.498 83.3924 203.479 83.4204C200.482 88.3232 196.48 92.5376 191.736 95.7871C182.545 102.264 170.128 106.24 156.468 106.24C150.156 106.268 143.873 105.382 137.824 103.636C137.225 106.455 136.907 109.367 136.907 112.344C136.907 120.95 139.525 129.014 144.069 135.874C144.163 136.004 144.247 136.126 144.331 136.256C150.951 145.44 160.525 152.375 171.689 155.679C171.736 155.688 171.783 155.707 171.83 155.716C172.437 155.884 173.054 156.052 173.672 156.202C177.739 157.191 182.012 157.723 186.416 157.723Z" stroke="#001451" stroke-width="2.126"/>
<path fill-rule="evenodd" clip-rule="evenodd" d="M135.608 136.078C135.608 136.078 123.107 140.147 123.378 132.466C123.658 124.775 127.183 120.622 130.54 118.625C133.887 116.637 135.065 117.365 135.065 117.365L135.608 136.078Z" fill="white"/>
<path d="M123.378 132.466C123.107 140.147 135.608 136.078 135.608 136.078L135.065 117.365C135.065 117.365 133.887 116.637 130.54 118.625C127.183 120.622 123.658 124.775 123.378 132.466Z" stroke="#001451" stroke-width="2.126"/>
<path fill-rule="evenodd" clip-rule="evenodd" d="M206.768 59.7595H206.777C225.309 67.3008 238.352 85.3701 238.352 106.463C238.352 118.849 233.855 130.198 226.365 138.981C227.628 134.594 228.301 129.965 228.301 125.177C228.301 108.433 220.082 93.6021 207.422 84.4275C207.107 84.1982 206.748 84.0357 206.367 83.9498C205.987 83.864 205.593 83.8567 205.209 83.9284C204.826 84 204.461 84.1492 204.137 84.3666C203.814 84.584 203.538 84.8652 203.327 85.1928C200.643 89.3648 196.96 93.0981 192.5 96.2341C183.496 102.571 171.369 106.463 158.017 106.463C155.517 106.458 153.02 106.315 150.537 106.034C148.233 112.361 147.059 119.042 147.068 125.774C147.068 130.133 147.545 134.37 148.442 138.421C140.701 129.563 136.007 118.009 136.007 105.362C136.007 104.475 136.035 103.579 136.082 102.702C134.898 102.277 133.729 101.813 132.575 101.311C131.192 100.695 129.845 100.042 128.546 99.3421C124.245 97.0088 124.591 90.7461 129.06 88.7581C132.912 87.0501 137.082 85.7061 141.505 84.8101C145.665 76.1689 152.19 68.8789 160.325 63.7823C168.46 58.6856 177.874 55.9902 187.479 56.0075C194.304 56.0075 200.821 57.3421 206.768 59.7595Z" fill="#001451"/>
<path fill-rule="evenodd" clip-rule="evenodd" d="M131.593 184.316C118.559 185.016 107.423 175.038 106.722 162.018C106.021 149.008 116.016 137.892 129.059 137.192C139.335 136.641 148.432 142.726 152.163 151.714L152.939 151.08C156.595 148.14 159.933 151.164 162.887 154.813C165.833 158.453 164.421 161.99 160.774 164.94L148.834 175.43C144.767 180.526 138.624 183.942 131.593 184.316Z" fill="#F1F3F5"/>
<path d="M106.722 162.018C107.423 175.038 118.559 185.016 131.593 184.316C138.624 183.942 144.767 180.526 148.834 175.43L160.774 164.94C164.421 161.99 165.833 158.453 162.887 154.813C159.933 151.164 156.595 148.14 152.939 151.08L152.163 151.714C148.432 142.726 139.335 136.641 129.059 137.192C116.016 137.892 106.021 149.008 106.722 162.018Z" stroke="black" stroke-width="1.435"/>
<path fill-rule="evenodd" clip-rule="evenodd" d="M164.461 158.509C164.545 160.021 163.965 161.486 162.871 162.858C162.815 162.933 162.75 163.008 162.694 163.082L162.507 163.297C162.395 163.428 162.273 163.549 162.161 163.67C161.74 164.1 161.282 164.529 160.777 164.94L148.837 175.43C144.77 180.526 138.627 183.942 131.596 184.316C118.562 185.016 107.426 175.038 106.725 162.018C106.023 149.008 116.019 137.892 129.062 137.192C139.244 136.641 148.257 142.614 152.053 151.453C152.521 151.145 156.13 149.857 157.439 150.165C159.571 150.65 161.665 151.556 163.021 153.478C164.059 154.943 164.567 156.718 164.461 158.509Z" fill="white"/>
<path d="M162.871 162.858C163.965 161.486 164.545 160.021 164.461 158.509C164.564 156.782 164.096 155 163.021 153.478C161.665 151.556 159.571 150.65 157.439 150.165C156.13 149.857 152.521 151.145 152.053 151.453C148.257 142.614 139.244 136.641 129.062 137.192C116.019 137.892 106.023 149.008 106.725 162.018C107.426 175.038 118.562 185.016 131.596 184.316C138.627 183.942 144.77 180.526 148.837 175.43L160.777 164.94C161.282 164.529 161.74 164.1 162.161 163.67C162.273 163.549 162.395 163.428 162.507 163.297L162.694 163.082C162.75 163.008 162.815 162.933 162.871 162.858Z" stroke="#001451" stroke-width="2.126"/>
<path fill-rule="evenodd" clip-rule="evenodd" d="M131.215 151.439C131.515 153.191 131.105 154.991 130.076 156.442C129.047 157.893 127.482 158.877 125.727 159.176C123.972 159.474 122.171 159.065 120.719 158.037C119.268 157.01 118.284 155.449 117.985 153.698L115.535 139.399C114.918 135.75 117.368 132.287 121.024 131.662C124.679 131.046 128.148 133.491 128.775 137.14L131.215 151.439Z" fill="white"/>
<path d="M125.727 159.176C127.482 158.877 129.047 157.893 130.076 156.442C131.105 154.991 131.515 153.191 131.215 151.439L128.775 137.14C128.148 133.491 124.679 131.046 121.024 131.662C117.368 132.287 114.918 135.75 115.535 139.399L117.985 153.698C118.284 155.449 119.268 157.01 120.719 158.037C122.171 159.065 123.972 159.474 125.727 159.176Z" stroke="#001451" stroke-width="2.126"/>
<path fill-rule="evenodd" clip-rule="evenodd" d="M249.71 132.466C249.981 140.147 237.48 136.078 237.48 136.078L238.022 117.365C238.022 117.365 239.2 116.637 242.557 118.625C245.904 120.622 249.438 124.775 249.71 132.466Z" fill="white"/>
<path d="M237.48 136.078C237.48 136.078 249.981 140.147 249.71 132.466C249.438 124.775 245.904 120.622 242.557 118.625C239.2 116.637 238.022 117.365 238.022 117.365L237.48 136.078Z" stroke="#001451" stroke-width="2.126"/>
<path fill-rule="evenodd" clip-rule="evenodd" d="M220.929 151.714C224.66 142.726 233.757 136.641 244.033 137.192C257.067 137.892 267.072 149.008 266.37 162.018C265.669 175.038 254.533 185.016 241.499 184.316C234.468 183.942 228.316 180.526 224.258 175.43L209.466 164.286C205.81 161.346 205.24 155.998 208.195 152.358C211.14 148.709 216.497 148.14 220.144 151.08L220.929 151.714Z" fill="white"/>
<path d="M244.033 137.192C233.757 136.641 224.66 142.726 220.929 151.714L220.144 151.08C216.497 148.14 211.14 148.709 208.195 152.358C205.24 155.998 205.81 161.346 209.466 164.286L224.258 175.43C228.316 180.526 234.468 183.942 241.499 184.316C254.533 185.016 265.669 175.038 266.37 162.018C267.072 149.008 257.067 137.892 244.033 137.192Z" stroke="#001451" stroke-width="2.126"/>
<path fill-rule="evenodd" clip-rule="evenodd" d="M252.06 131.662C255.716 132.287 258.175 135.75 257.549 139.399L255.108 153.698C254.547 156.964 251.714 159.27 248.498 159.27C248.124 159.27 247.74 159.242 247.357 159.176C243.701 158.551 241.252 155.088 241.869 151.439L244.318 137.14C244.935 133.491 248.414 131.046 252.06 131.662Z" fill="white"/>
<path d="M257.549 139.399C257.849 137.646 257.439 135.847 256.41 134.396C255.38 132.945 253.816 131.961 252.06 131.662C248.414 131.046 244.935 133.491 244.318 137.14L241.869 151.439C241.252 155.088 243.701 158.551 247.357 159.176C247.74 159.242 248.124 159.27 248.498 159.27C251.714 159.27 254.547 156.964 255.108 153.698L257.549 139.399Z" stroke="#001451" stroke-width="2.126"/>
<path fill-rule="evenodd" clip-rule="evenodd" d="M261.509 140.589C264.567 141.112 266.624 144.005 266.1 147.057L264.052 159.022C263.585 161.757 261.21 163.689 258.527 163.689C258.209 163.689 257.891 163.661 257.573 163.605C256.846 163.481 256.15 163.216 255.526 162.824C254.902 162.432 254.361 161.921 253.935 161.32C253.509 160.72 253.205 160.041 253.042 159.323C252.878 158.605 252.858 157.863 252.982 157.137L255.02 145.172C255.274 143.706 256.1 142.401 257.316 141.542C258.532 140.682 260.04 140.34 261.509 140.589Z" fill="white"/>
<path d="M266.1 147.057C266.224 146.331 266.204 145.588 266.041 144.871C265.877 144.153 265.573 143.474 265.147 142.873C264.721 142.273 264.18 141.762 263.556 141.37C262.932 140.978 262.236 140.713 261.509 140.589C260.04 140.34 258.532 140.682 257.316 141.542C256.1 142.401 255.274 143.706 255.02 145.172L252.982 157.137C252.858 157.863 252.878 158.605 253.042 159.323C253.205 160.041 253.509 160.72 253.935 161.32C254.361 161.921 254.902 162.432 255.526 162.824C256.15 163.216 256.846 163.481 257.573 163.605C257.891 163.661 258.209 163.689 258.527 163.689C261.21 163.689 263.585 161.757 264.052 159.022L266.1 147.057Z" stroke="#001451" stroke-width="2.126"/>
<path fill-rule="evenodd" clip-rule="evenodd" d="M239.04 166.308L220.144 151.085C216.497 148.136 211.14 148.705 208.195 152.355C207.492 153.221 206.968 154.218 206.652 155.287C206.336 156.357 206.234 157.478 206.352 158.586C206.47 159.695 206.806 160.769 207.34 161.748C207.875 162.727 208.597 163.592 209.466 164.292L224.258 175.427H241.817C242.818 172.207 241.827 168.557 239.04 166.308Z" fill="white"/>
<path d="M239.04 166.308L220.144 151.085C216.497 148.136 211.14 148.705 208.195 152.355C207.492 153.221 206.968 154.218 206.652 155.287C206.336 156.357 206.234 157.478 206.352 158.586C206.47 159.695 206.806 160.769 207.34 161.748C207.875 162.727 208.597 163.592 209.466 164.292L224.258 175.427H241.817C242.818 172.207 241.827 168.557 239.04 166.308Z" stroke="#001451" stroke-width="2.126"/>
<path d="M241.812 175.425C242.822 172.205 241.822 168.555 239.036 166.306" stroke="#001451" stroke-width="1.435"/>
<path fill-rule="evenodd" clip-rule="evenodd" d="M120.11 157.136C120.234 157.862 120.214 158.605 120.051 159.322C119.887 160.04 119.583 160.719 119.157 161.319C118.731 161.92 118.19 162.431 117.566 162.823C116.942 163.215 116.246 163.48 115.519 163.604C115.201 163.66 114.883 163.688 114.566 163.688C113.24 163.687 111.957 163.218 110.944 162.364C109.931 161.51 109.253 160.326 109.03 159.021L106.992 147.056C106.868 146.33 106.888 145.588 107.052 144.87C107.216 144.152 107.519 143.474 107.946 142.873C108.807 141.66 110.115 140.838 111.583 140.588C113.051 140.338 114.558 140.68 115.774 141.54C116.989 142.399 117.812 143.705 118.062 145.171L120.11 157.136Z" fill="white"/>
<path d="M115.519 163.604C116.246 163.48 116.942 163.215 117.566 162.823C118.19 162.431 118.731 161.92 119.157 161.319C119.583 160.719 119.887 160.04 120.051 159.322C120.214 158.605 120.234 157.862 120.11 157.136L118.062 145.171C117.938 144.445 117.672 143.751 117.28 143.128C116.887 142.505 116.375 141.965 115.774 141.54C115.172 141.114 114.492 140.811 113.773 140.648C113.054 140.485 112.31 140.464 111.583 140.588C110.856 140.712 110.161 140.977 109.537 141.369C108.912 141.761 108.372 142.272 107.946 142.873C107.519 143.474 107.216 144.152 107.052 144.87C106.888 145.588 106.868 146.33 106.992 147.056L109.03 159.021C109.498 161.756 111.873 163.688 114.566 163.688C114.883 163.688 115.201 163.66 115.519 163.604Z" stroke="#001451" stroke-width="2.126"/>
<path fill-rule="evenodd" clip-rule="evenodd" d="M195.46 139.225C190.925 134.54 181.743 134.54 177.209 139.225H149.448V118.832H226.081V139.225H195.46Z" fill="#001451"/>
<path fill-rule="evenodd" clip-rule="evenodd" d="M219.933 109.158C205.487 109.158 193.781 120.843 193.781 135.263C193.781 149.683 205.487 161.378 219.933 161.378C234.378 161.378 246.094 149.683 246.094 135.263C246.094 120.843 234.378 109.158 219.933 109.158Z" fill="#001451"/>
<path fill-rule="evenodd" clip-rule="evenodd" d="M219.932 114.72C208.571 114.72 199.352 123.922 199.352 135.262C199.352 146.612 208.571 155.814 219.932 155.814C231.301 155.814 240.52 146.612 240.52 135.262C240.52 123.922 231.301 114.72 219.932 114.72Z" fill="#DD3568"/>
<path d="M219.932 114.72C208.571 114.72 199.352 123.922 199.352 135.262C199.352 146.612 208.571 155.814 219.932 155.814C231.301 155.814 240.52 146.612 240.52 135.262C240.52 123.922 231.301 114.72 219.932 114.72Z" stroke="#D12A5D" stroke-width="2.126"/>
<path fill-rule="evenodd" clip-rule="evenodd" d="M153.318 109.158C138.873 109.158 127.167 120.843 127.167 135.263C127.167 149.683 138.873 161.378 153.318 161.378C167.764 161.378 179.48 149.683 179.48 135.263C179.48 120.843 167.764 109.158 153.318 109.158Z" fill="#001451"/>
<path fill-rule="evenodd" clip-rule="evenodd" d="M153.318 114.72C141.958 114.72 132.739 123.922 132.739 135.262C132.739 146.612 141.958 155.814 153.318 155.814C164.688 155.814 173.907 146.612 173.907 135.262C173.907 123.922 164.688 114.72 153.318 114.72Z" fill="#DD3568"/>
<path d="M153.318 114.72C141.958 114.72 132.739 123.922 132.739 135.262C132.739 146.612 141.958 155.814 153.318 155.814C164.688 155.814 173.907 146.612 173.907 135.262C173.907 123.922 164.688 114.72 153.318 114.72Z" stroke="#D12A5D" stroke-width="2.126"/>
<path fill-rule="evenodd" clip-rule="evenodd" d="M148.839 175.425L156.871 168.294L161.087 164.579C162.819 163.362 163.996 161.509 164.359 159.426C164.722 157.343 164.241 155.202 163.023 153.473C160.48 149.879 155.496 149.011 151.896 151.55L133.262 164.654C131.955 165.573 130.955 166.862 130.39 168.354C129.825 169.847 129.721 171.474 130.092 173.026L148.839 175.425Z" fill="white"/>
<path d="M111.076 175.426C111.076 175.426 106.541 205.078 106.906 209.595C107.271 214.122 111.805 220.991 119.407 222.615C127.018 224.248 136.994 220.272 136.994 220.272M262.429 174.824C262.429 174.824 266.749 203.458 266.384 207.976C266.02 212.502 261.494 219.372 253.883 220.996C246.272 222.629 233.36 218.009 233.36 218.009M183.409 147.765C183.409 147.765 186.055 147.056 188.028 147.737M148.839 175.425L156.871 168.294L161.087 164.579C162.819 163.362 163.996 161.509 164.359 159.426C164.722 157.343 164.241 155.202 163.023 153.473C160.48 149.879 155.496 149.011 151.896 151.55L133.262 164.654C131.955 165.573 130.955 166.862 130.39 168.354C129.825 169.847 129.721 171.474 130.092 173.026L148.839 175.425Z" stroke="#001451" stroke-width="2.126"/>
<path fill-rule="evenodd" clip-rule="evenodd" d="M145.56 132.698C144.372 132.698 143.4 133.668 143.4 134.854C143.4 135.426 143.627 135.976 144.032 136.381C144.437 136.787 144.986 137.016 145.56 137.019C146.757 137.019 147.729 136.048 147.729 134.854C147.727 134.281 147.497 133.733 147.09 133.329C146.684 132.924 146.134 132.698 145.56 132.698ZM152.594 132.698C151.406 132.698 150.434 133.668 150.434 134.854C150.434 135.426 150.661 135.976 151.066 136.381C151.471 136.787 152.02 137.016 152.594 137.019C153.791 137.019 154.763 136.048 154.763 134.854C154.761 134.281 154.531 133.733 154.124 133.329C153.718 132.924 153.168 132.698 152.594 132.698ZM159.627 132.698C158.439 132.698 157.467 133.668 157.467 134.854C157.467 135.426 157.694 135.976 158.099 136.381C158.504 136.787 159.053 137.016 159.627 137.019C160.824 137.019 161.796 136.048 161.796 134.854C161.794 134.281 161.564 133.733 161.158 133.329C160.751 132.924 160.201 132.698 159.627 132.698ZM213.73 132.698C212.542 132.698 211.57 133.668 211.57 134.854C211.57 135.426 211.797 135.976 212.202 136.381C212.607 136.787 213.156 137.016 213.73 137.019C214.927 137.019 215.899 136.048 215.899 134.854C215.897 134.281 215.667 133.733 215.26 133.329C214.854 132.924 214.303 132.698 213.73 132.698ZM220.764 132.698C219.576 132.698 218.604 133.668 218.604 134.854C218.604 135.426 218.831 135.976 219.236 136.381C219.641 136.787 220.19 137.016 220.764 137.019C221.961 137.019 222.933 136.048 222.933 134.854C222.931 134.281 222.701 133.733 222.294 133.329C221.888 132.924 221.337 132.698 220.764 132.698ZM227.797 132.698C226.609 132.698 225.637 133.668 225.637 134.854C225.637 135.426 225.864 135.976 226.269 136.381C226.674 136.787 227.223 137.016 227.797 137.019C228.994 137.019 229.966 136.048 229.966 134.854C229.964 134.281 229.734 133.733 229.327 133.329C228.921 132.924 228.371 132.698 227.797 132.698Z" fill="white"/>
<path fill-rule="evenodd" clip-rule="evenodd" d="M290.879 224.852L294.074 217.467L286.676 214.276L283.48 221.661L290.879 224.852Z" fill="#DD3568"/>
<path d="M287.981 213.761L284.786 221.143L290.357 223.546L293.552 216.164L287.981 213.761Z" stroke="#D12A5D" stroke-width="2.126"/>
<path d="M138.851 216.209C137.944 218.411 137.318 220.661 136.991 222.929M233.075 217.282C233.982 219.485 234.599 221.734 234.926 224.002" stroke="#001451" stroke-width="2"/>
<path fill-rule="evenodd" clip-rule="evenodd" d="M87.9807 163.007L83.0158 166.712L70.5336 153.085C66.405 155.395 61.5485 156.043 56.9574 154.896C47.009 152.441 40.9221 142.501 43.3531 132.692C45.7841 122.892 55.8167 116.928 65.7557 119.383C75.6948 121.837 81.7816 131.777 79.3506 141.587C78.6587 144.405 77.331 146.897 75.5639 148.969L86.5782 161.42L87.1205 159.208L88.71 160.048L87.9807 163.007Z" fill="#CCCCCC"/>
<path fill-rule="evenodd" clip-rule="evenodd" d="M78.8719 139.894C78.3296 142.078 77.3572 144.047 76.0576 145.746L88.7081 160.044L83.7526 163.759L71.1675 150.011C67.2592 152.288 62.3692 153.091 57.4791 151.887C47.886 149.516 41.9207 140.314 44.146 131.316C46.3713 122.328 55.9551 116.962 65.5388 119.332C75.1319 121.703 81.1066 130.906 78.8719 139.894Z" fill="#E7E7E7"/>
<path d="M46.9024 126.052C45.4113 128.01 44.3388 130.253 43.7514 132.642C41.3204 142.451 47.4073 152.391 57.3557 154.846C61.948 155.989 66.8045 155.338 70.9319 153.026L83.4141 166.662L88.379 162.956L89.1083 159.988L77.4769 146.847C78.4867 145.242 79.2721 143.468 79.7489 141.527C82.1799 131.727 76.0931 121.787 66.154 119.332L66.0512 119.304L65.939 119.276C58.3935 117.41 50.8574 120.34 46.9024 126.052Z" stroke="#001451" stroke-width="2"/>
<path fill-rule="evenodd" clip-rule="evenodd" d="M48.8042 132.471C47.1539 139.13 51.5082 145.926 58.5245 147.659C65.5407 149.391 72.5682 145.406 74.2175 138.747C75.8659 132.097 71.5135 125.291 64.4973 123.558C57.481 121.826 50.4517 125.821 48.8042 132.471Z" fill="white"/>
<path fill-rule="evenodd" clip-rule="evenodd" d="M50.864 143.255C48.6835 140.371 47.7682 136.658 48.6779 132.986C50.3263 126.336 57.3547 122.341 64.371 124.074C68.6907 125.14 72.0006 128.129 73.5218 131.82C71.7481 129.474 69.1367 127.677 65.9895 126.9C58.9742 125.167 51.9448 129.162 50.2964 135.812C49.684 138.29 49.8823 140.898 50.864 143.255Z" fill="#E7E7E7"/>
<path d="M48.8042 132.471C47.1539 139.13 51.5082 145.926 58.5245 147.659C65.5407 149.391 72.5682 145.406 74.2175 138.747C75.8659 132.097 71.5135 125.291 64.4973 123.558C57.481 121.826 50.4517 125.821 48.8042 132.471Z" stroke="#001451" stroke-width="2"/>
<path d="M60.761 142.92C60.761 142.92 58.0121 142.967 56.2636 141.838C54.5152 140.708 54.2721 139.15 54.2721 139.15" stroke="#001451" stroke-width="2.126"/>
<path fill-rule="evenodd" clip-rule="evenodd" d="M186.116 123.012C185.107 123.012 184.293 123.824 184.293 124.832C184.293 125.84 185.107 126.652 186.116 126.652C187.126 126.652 187.94 125.84 187.94 124.832C187.94 123.824 187.126 123.012 186.116 123.012Z" fill="#666666"/>
<path fill-rule="evenodd" clip-rule="evenodd" d="M139.115 97.496C134.01 97.496 129.877 100.371 129.877 103.917C129.877 107.473 134.01 110.348 139.115 110.348C144.211 110.348 148.343 107.473 148.343 103.917C148.343 100.371 144.211 97.496 139.115 97.496Z" fill="#001451"/>
<defs>
<linearGradient id="paint0_linear_274_2467" x1="249.299" y1="-388.425" x2="250.034" y2="-449.591" gradientUnits="userSpaceOnUse">
<stop stop-color="white"/>
<stop offset="1" stop-color="#F2F3F5"/>
</linearGradient>
</defs>
</svg>
