<svg width="72" height="66" viewBox="0 0 72 66" fill="none" xmlns="http://www.w3.org/2000/svg">
<path d="M22.4361 58.839C34.8273 58.839 44.8725 48.7941 44.8725 36.4029C44.8725 24.0117 34.8273 13.9668 22.4361 13.9668C10.0449 13.9668 0 24.0117 0 36.4026C0 48.7935 10.0449 58.8387 22.4361 58.8387V58.839Z" fill="#D6DAE1"/>
<path d="M11.6083 38.5948C13.2411 38.5948 14.5646 37.2713 14.5646 35.6388C14.5646 34.0061 13.2411 32.6829 11.6083 32.6829C10.8244 32.6829 10.0725 32.9943 9.51813 33.5486C8.96378 34.103 8.65234 34.8549 8.65234 35.6388C8.65234 36.4228 8.96378 37.1747 9.51813 37.729C10.0725 38.2834 10.8244 38.5948 11.6083 38.5948ZM29.2949 32.1181C29.6831 32.1182 30.0675 32.0417 30.4261 31.8932C30.7848 31.7447 31.1107 31.5269 31.3852 31.2524C31.6597 30.9779 31.8774 30.652 32.0259 30.2934C32.1745 29.9347 32.2509 29.5503 32.2509 29.1621C32.2509 28.5775 32.0775 28.006 31.7527 27.5199C31.4279 27.0338 30.9662 26.6549 30.4261 26.4312C29.8859 26.2074 29.2916 26.1489 28.7182 26.2629C28.1448 26.377 27.6181 26.6585 27.2047 27.0719C26.7913 27.4853 26.5097 28.012 26.3957 28.5854C26.2816 29.1589 26.3402 29.7532 26.5639 30.2933C26.7876 30.8335 27.1665 31.2951 27.6526 31.6199C28.1387 31.9448 28.7102 32.1181 29.2949 32.1181ZM14.8301 45.8024L33.5629 38.9435C33.5629 38.9435 34.277 46.94 27.1275 49.597C19.9783 52.2543 14.8301 45.8024 14.8301 45.8024Z" fill="#EFF2F4"/>
<path d="M47.9449 44.8725C60.3361 44.8725 70.3813 34.8273 70.3813 22.4361C70.3813 10.0453 60.3361 0 47.9449 0C35.5537 0 25.5088 10.0449 25.5088 22.4361C25.5088 34.8273 35.5537 44.8725 47.9449 44.8725Z" fill="#EFF2F4"/>
<path d="M39.3502 18.7661C40.1342 18.7661 40.8861 18.4546 41.4405 17.9002C41.9949 17.3458 42.3063 16.5939 42.3063 15.8099C42.3063 15.0259 41.9949 14.274 41.4405 13.7196C40.8861 13.1652 40.1342 12.8538 39.3502 12.8538C38.5662 12.8538 37.8143 13.1652 37.2599 13.7196C36.7055 14.274 36.394 15.0259 36.394 15.8099C36.394 16.5939 36.7055 17.3458 37.2599 17.9002C37.8143 18.4546 38.5662 18.7661 39.3502 18.7661ZM57.6682 23.1586C58.4522 23.1586 59.2041 22.8472 59.7584 22.2928C60.3128 21.7384 60.6242 20.9866 60.6242 20.2026C60.6242 19.4186 60.3128 18.6668 59.7584 18.1124C59.2041 17.558 58.4522 17.2466 57.6682 17.2466C56.8842 17.2466 56.1324 17.558 55.578 18.1124C55.0237 18.6668 54.7122 19.4186 54.7122 20.2026C54.7122 20.9866 55.0237 21.7384 55.578 22.2928C56.1324 22.8472 56.8842 23.1586 57.6682 23.1586ZM36.411 26.0565L55.8082 30.7148C55.8082 30.7148 51.9801 37.7727 44.5651 35.9875C37.1502 34.2023 36.411 26.0565 36.411 26.0565Z" fill="white"/>
<path d="M71.0947 38.5203C70.829 35.5308 68.4374 30.499 62.5751 30.499C57.593 30.499 54.3464 34.7171 53.5159 35.9378C52.6857 34.7171 49.472 30.499 44.4651 30.499C38.6028 30.499 36.1616 35.5392 35.9374 38.5368C35.7132 41.5344 36.5767 43.9092 42.5802 50.0124C48.5838 56.1156 53.5159 61.3551 53.5159 61.3551C53.5159 61.3551 58.498 56.0904 64.4932 49.9956C70.4884 43.9008 71.3602 41.5095 71.0947 38.5203Z" fill="#DD3568"/>
<path d="M4.59205 64.9587C4.59205 64.9587 0.190826 37.8891 23.8809 37.8395C32.3257 37.8395 21.7055 52.8355 15.8848 45.9188C10.0638 39.0019 15.3533 28.6306 21.4813 25.5169" stroke="#231815" stroke-miterlimit="10" stroke-linecap="round"/>
</svg>
