<svg width="127" height="48" viewBox="0 0 127 48" fill="none" xmlns="http://www.w3.org/2000/svg">
<path d="M10.08 39.468C8.424 39.468 6.912 39.042 5.544 38.19C4.188 37.338 3.102 36.192 2.286 34.752C1.482 33.312 1.08 31.722 1.08 29.982C1.08 28.674 1.314 27.45 1.782 26.31C2.25 25.158 2.892 24.15 3.708 23.286C4.536 22.41 5.496 21.726 6.588 21.234C7.68 20.742 8.844 20.496 10.08 20.496C11.484 20.496 12.768 20.796 13.932 21.396C15.108 21.984 16.104 22.794 16.92 23.826C17.736 24.858 18.33 26.034 18.702 27.354C19.074 28.674 19.158 30.054 18.954 31.494H5.796C5.964 32.166 6.24 32.772 6.624 33.312C7.008 33.84 7.494 34.266 8.082 34.59C8.67 34.902 9.336 35.064 10.08 35.076C10.848 35.088 11.544 34.908 12.168 34.536C12.804 34.152 13.332 33.636 13.752 32.988L18.234 34.032C17.502 35.628 16.41 36.936 14.958 37.956C13.506 38.964 11.88 39.468 10.08 39.468ZM5.652 28.2H14.508C14.376 27.48 14.094 26.832 13.662 26.256C13.242 25.668 12.72 25.2 12.096 24.852C11.472 24.504 10.8 24.33 10.08 24.33C9.36 24.33 8.694 24.504 8.082 24.852C7.47 25.188 6.948 25.65 6.516 26.238C6.096 26.814 5.808 27.468 5.652 28.2ZM35.561 12H39.953V39H35.561V36.75C34.985 37.554 34.259 38.208 33.383 38.712C32.507 39.216 31.493 39.468 30.341 39.468C29.033 39.468 27.809 39.222 26.669 38.73C25.529 38.238 24.521 37.56 23.645 36.696C22.781 35.82 22.103 34.812 21.611 33.672C21.119 32.532 20.873 31.308 20.873 30C20.873 28.692 21.119 27.468 21.611 26.328C22.103 25.188 22.781 24.186 23.645 23.322C24.521 22.446 25.529 21.762 26.669 21.27C27.809 20.778 29.033 20.532 30.341 20.532C31.493 20.532 32.507 20.784 33.383 21.288C34.259 21.78 34.985 22.434 35.561 23.25V12ZM30.395 35.238C31.331 35.238 32.159 35.004 32.879 34.536C33.599 34.068 34.163 33.438 34.571 32.646C34.979 31.842 35.183 30.96 35.183 30C35.183 29.028 34.979 28.146 34.571 27.354C34.163 26.55 33.593 25.914 32.861 25.446C32.141 24.978 31.319 24.744 30.395 24.744C29.471 24.744 28.625 24.984 27.857 25.464C27.101 25.932 26.495 26.562 26.039 27.354C25.595 28.146 25.373 29.028 25.373 30C25.373 30.972 25.601 31.854 26.057 32.646C26.513 33.438 27.119 34.068 27.875 34.536C28.643 35.004 29.483 35.238 30.395 35.238ZM43.5572 32.34V21H47.9492V31.188C47.9492 31.896 48.1232 32.544 48.4712 33.132C48.8192 33.708 49.2812 34.17 49.8572 34.518C50.4452 34.854 51.0872 35.022 51.7832 35.022C52.5032 35.022 53.1512 34.854 53.7272 34.518C54.3032 34.17 54.7652 33.708 55.1132 33.132C55.4612 32.544 55.6352 31.896 55.6352 31.188V21H60.0272L60.0452 39H55.6532L55.6352 37.362C55.0112 38.01 54.2732 38.526 53.4212 38.91C52.5692 39.282 51.6572 39.468 50.6852 39.468C49.3772 39.468 48.1832 39.15 47.1032 38.514C46.0232 37.866 45.1592 37.008 44.5112 35.94C43.8752 34.86 43.5572 33.66 43.5572 32.34ZM76.939 21H81.331V39H76.939L76.741 36.768C76.249 37.572 75.595 38.226 74.779 38.73C73.975 39.222 73.021 39.468 71.917 39.468C70.585 39.468 69.337 39.216 68.173 38.712C67.009 38.208 65.983 37.512 65.095 36.624C64.219 35.736 63.529 34.71 63.025 33.546C62.533 32.382 62.287 31.134 62.287 29.802C62.287 28.518 62.521 27.312 62.989 26.184C63.469 25.056 64.135 24.066 64.987 23.214C65.839 22.362 66.823 21.696 67.939 21.216C69.055 20.736 70.255 20.496 71.539 20.496C72.727 20.496 73.789 20.76 74.725 21.288C75.673 21.816 76.477 22.488 77.137 23.304L76.939 21ZM71.809 35.238C72.745 35.238 73.573 35.004 74.293 34.536C75.013 34.068 75.577 33.438 75.985 32.646C76.393 31.842 76.597 30.96 76.597 30C76.597 29.028 76.393 28.146 75.985 27.354C75.577 26.55 75.007 25.914 74.275 25.446C73.555 24.978 72.733 24.744 71.809 24.744C70.885 24.744 70.039 24.984 69.271 25.464C68.515 25.932 67.909 26.562 67.453 27.354C67.009 28.146 66.787 29.028 66.787 30C66.787 30.972 67.015 31.854 67.471 32.646C67.927 33.438 68.533 34.068 69.289 34.536C70.057 35.004 70.897 35.238 71.809 35.238ZM89.3098 48H84.9178V21H89.3098V23.286C89.8978 22.47 90.6178 21.81 91.4698 21.306C92.3338 20.79 93.3418 20.532 94.4938 20.532C95.8138 20.532 97.0438 20.778 98.1838 21.27C99.3238 21.762 100.326 22.446 101.19 23.322C102.066 24.186 102.744 25.188 103.224 26.328C103.716 27.468 103.962 28.692 103.962 30C103.962 31.308 103.716 32.538 103.224 33.69C102.744 34.842 102.066 35.856 101.19 36.732C100.326 37.596 99.3238 38.274 98.1838 38.766C97.0438 39.258 95.8138 39.504 94.4938 39.504C93.3418 39.504 92.3338 39.252 91.4698 38.748C90.6178 38.232 89.8978 37.566 89.3098 36.75V48ZM94.4398 24.762C93.5278 24.762 92.7118 25.002 91.9918 25.482C91.2718 25.95 90.7078 26.58 90.2998 27.372C89.8918 28.164 89.6878 29.04 89.6878 30C89.6878 30.96 89.8918 31.842 90.2998 32.646C90.7078 33.438 91.2718 34.074 91.9918 34.554C92.7118 35.022 93.5278 35.256 94.4398 35.256C95.3638 35.256 96.2098 35.022 96.9778 34.554C97.7458 34.086 98.3578 33.456 98.8138 32.664C99.2698 31.86 99.4978 30.972 99.4978 30C99.4978 29.04 99.2698 28.164 98.8138 27.372C98.3578 26.58 97.7458 25.95 96.9778 25.482C96.2218 25.002 95.3758 24.762 94.4398 24.762ZM111.177 48H106.785V21H111.177V23.286C111.765 22.47 112.485 21.81 113.337 21.306C114.201 20.79 115.209 20.532 116.361 20.532C117.681 20.532 118.911 20.778 120.051 21.27C121.191 21.762 122.193 22.446 123.057 23.322C123.933 24.186 124.611 25.188 125.091 26.328C125.583 27.468 125.829 28.692 125.829 30C125.829 31.308 125.583 32.538 125.091 33.69C124.611 34.842 123.933 35.856 123.057 36.732C122.193 37.596 121.191 38.274 120.051 38.766C118.911 39.258 117.681 39.504 116.361 39.504C115.209 39.504 114.201 39.252 113.337 38.748C112.485 38.232 111.765 37.566 111.177 36.75V48ZM116.307 24.762C115.395 24.762 114.579 25.002 113.859 25.482C113.139 25.95 112.575 26.58 112.167 27.372C111.759 28.164 111.555 29.04 111.555 30C111.555 30.96 111.759 31.842 112.167 32.646C112.575 33.438 113.139 34.074 113.859 34.554C114.579 35.022 115.395 35.256 116.307 35.256C117.231 35.256 118.077 35.022 118.845 34.554C119.613 34.086 120.225 33.456 120.681 32.664C121.137 31.86 121.365 30.972 121.365 30C121.365 29.04 121.137 28.164 120.681 27.372C120.225 26.58 119.613 25.95 118.845 25.482C118.089 25.002 117.243 24.762 116.307 24.762Z" fill="#001451"/>
<path d="M46.5 16.0308C57.8333 6.19745 87 -8 112 16.0308" stroke="#DD3568" stroke-width="4" stroke-linecap="round"/>
</svg>
