<svg width="124" height="34" viewBox="0 0 124 34" fill="none" xmlns="http://www.w3.org/2000/svg">
<rect width="124" height="34" rx="17" fill="#DD3568"/>
<path d="M34 23H30.9087C31.428 22.5363 31.9177 22.0406 32.375 21.5156C34.0906 19.5425 35 17.4625 35 15.5C35 14.0413 34.4205 12.6424 33.3891 11.6109C32.3576 10.5795 30.9587 10 29.5 10C28.0413 10 26.6424 10.5795 25.6109 11.6109C24.5795 12.6424 24 14.0413 24 15.5C24 17.4625 24.9069 19.5425 26.625 21.5156C27.0823 22.0406 27.572 22.5363 28.0912 23H25C24.8674 23 24.7402 23.0527 24.6464 23.1464C24.5527 23.2402 24.5 23.3674 24.5 23.5C24.5 23.6326 24.5527 23.7598 24.6464 23.8536C24.7402 23.9473 24.8674 24 25 24H34C34.1326 24 34.2598 23.9473 34.3536 23.8536C34.4473 23.7598 34.5 23.6326 34.5 23.5C34.5 23.3674 34.4473 23.2402 34.3536 23.1464C34.2598 23.0527 34.1326 23 34 23ZM29.5 13.5C29.8956 13.5 30.2822 13.6173 30.6111 13.8371C30.94 14.0568 31.1964 14.3692 31.3478 14.7346C31.4991 15.1001 31.5387 15.5022 31.4616 15.8902C31.3844 16.2781 31.1939 16.6345 30.9142 16.9142C30.6345 17.1939 30.2781 17.3844 29.8902 17.4616C29.5022 17.5387 29.1001 17.4991 28.7346 17.3478C28.3692 17.1964 28.0568 16.94 27.8371 16.6111C27.6173 16.2822 27.5 15.8956 27.5 15.5C27.5 14.9696 27.7107 14.4609 28.0858 14.0858C28.4609 13.7107 28.9696 13.5 29.5 13.5Z" fill="#FCEFF3"/>
<path d="M44.0334 21.5V12.74H45.9774L48.3774 18.272H48.5814L50.9574 12.74H52.9254V21.5H51.4974V14.024L51.6414 14.048L49.2174 19.7H47.6334L45.1854 14.048L45.3534 14.024V21.5H44.0334ZM59.0277 21.5V19.568H58.7997V17.384C58.7997 16.984 58.6957 16.68 58.4877 16.472C58.2797 16.264 57.9717 16.16 57.5637 16.16C57.3397 16.16 57.0917 16.164 56.8197 16.172C56.5477 16.18 56.2797 16.192 56.0157 16.208C55.7597 16.216 55.5317 16.228 55.3317 16.244V15.032C55.5077 15.016 55.6997 15.004 55.9077 14.996C56.1237 14.98 56.3437 14.968 56.5677 14.96C56.7997 14.952 57.0197 14.948 57.2277 14.948C57.8837 14.948 58.4277 15.032 58.8597 15.2C59.2917 15.368 59.6117 15.636 59.8197 16.004C60.0357 16.364 60.1437 16.848 60.1437 17.456V21.5H59.0277ZM56.9277 21.668C56.4557 21.668 56.0437 21.588 55.6917 21.428C55.3397 21.26 55.0677 21.02 54.8757 20.708C54.6837 20.388 54.5877 20.008 54.5877 19.568C54.5877 19.104 54.6957 18.72 54.9117 18.416C55.1357 18.112 55.4517 17.884 55.8597 17.732C56.2677 17.58 56.7557 17.504 57.3237 17.504H58.9437V18.428H57.2877C56.8637 18.428 56.5397 18.532 56.3157 18.74C56.0917 18.94 55.9797 19.204 55.9797 19.532C55.9797 19.86 56.0917 20.124 56.3157 20.324C56.5397 20.516 56.8637 20.612 57.2877 20.612C57.5357 20.612 57.7717 20.568 57.9957 20.48C58.2197 20.384 58.4037 20.228 58.5477 20.012C58.6997 19.796 58.7837 19.492 58.7997 19.1L59.1597 19.568C59.1197 20.024 59.0077 20.408 58.8237 20.72C58.6477 21.024 58.3997 21.26 58.0797 21.428C57.7677 21.588 57.3837 21.668 56.9277 21.668ZM62.1004 23.9V15.032H63.2164V17.828L63.0004 17.816C63.0404 17.136 63.1844 16.576 63.4324 16.136C63.6804 15.696 64.0084 15.368 64.4164 15.152C64.8244 14.936 65.2724 14.828 65.7604 14.828C66.2244 14.828 66.6444 14.916 67.0204 15.092C67.3964 15.26 67.7204 15.496 67.9924 15.8C68.2644 16.104 68.4684 16.456 68.6044 16.856C68.7484 17.256 68.8204 17.688 68.8204 18.152V18.38C68.8204 18.836 68.7484 19.268 68.6044 19.676C68.4604 20.076 68.2524 20.428 67.9804 20.732C67.7084 21.036 67.3844 21.276 67.0084 21.452C66.6324 21.628 66.2124 21.716 65.7484 21.716C65.2764 21.716 64.8364 21.616 64.4284 21.416C64.0204 21.216 63.6844 20.896 63.4204 20.456C63.1564 20.016 63.0084 19.444 62.9764 18.74L63.5044 19.628V23.9H62.1004ZM65.4484 20.504C65.8404 20.504 66.1844 20.412 66.4804 20.228C66.7764 20.036 67.0044 19.772 67.1644 19.436C67.3324 19.092 67.4164 18.7 67.4164 18.26C67.4164 17.82 67.3324 17.432 67.1644 17.096C67.0044 16.76 66.7764 16.5 66.4804 16.316C66.1924 16.124 65.8484 16.028 65.4484 16.028C65.0964 16.028 64.7684 16.108 64.4644 16.268C64.1604 16.428 63.9164 16.66 63.7324 16.964C63.5484 17.26 63.4564 17.62 63.4564 18.044V18.56C63.4564 18.968 63.5484 19.32 63.7324 19.616C63.9244 19.904 64.1724 20.124 64.4764 20.276C64.7804 20.428 65.1044 20.504 65.4484 20.504ZM75.2285 21.5L72.3245 12.74H73.8005L76.3205 20.528L75.7925 20.264H77.1605L76.5845 20.528L78.9125 12.74H80.3525L77.6405 21.5H75.2285ZM81.8538 21.5V15.032H83.2578V21.5H81.8538ZM80.9058 16.112V15.032H83.2578V16.112H80.9058ZM82.3098 14.132C82.0218 14.132 81.8058 14.056 81.6618 13.904C81.5258 13.752 81.4578 13.556 81.4578 13.316C81.4578 13.084 81.5258 12.892 81.6618 12.74C81.8058 12.58 82.0218 12.5 82.3098 12.5C82.6058 12.5 82.8218 12.58 82.9578 12.74C83.1018 12.892 83.1738 13.084 83.1738 13.316C83.1738 13.556 83.1018 13.752 82.9578 13.904C82.8218 14.056 82.6058 14.132 82.3098 14.132ZM88.1704 21.716C87.6104 21.716 87.1224 21.62 86.7064 21.428C86.2904 21.236 85.9504 20.984 85.6864 20.672C85.4224 20.352 85.2224 19.996 85.0864 19.604C84.9584 19.204 84.8944 18.796 84.8944 18.38V18.152C84.8944 17.728 84.9584 17.32 85.0864 16.928C85.2224 16.528 85.4224 16.172 85.6864 15.86C85.9504 15.54 86.2824 15.288 86.6824 15.104C87.0904 14.912 87.5624 14.816 88.0984 14.816C88.7944 14.816 89.3744 14.968 89.8384 15.272C90.3024 15.576 90.6504 15.972 90.8824 16.46C91.1144 16.94 91.2304 17.46 91.2304 18.02V18.584H85.4944V17.636H90.2824L89.8984 18.116C89.8984 17.684 89.8304 17.312 89.6944 17C89.5584 16.68 89.3584 16.436 89.0944 16.268C88.8304 16.092 88.4984 16.004 88.0984 16.004C87.6824 16.004 87.3344 16.1 87.0544 16.292C86.7744 16.484 86.5664 16.748 86.4304 17.084C86.2944 17.42 86.2264 17.816 86.2264 18.272C86.2264 18.704 86.2944 19.092 86.4304 19.436C86.5664 19.772 86.7784 20.04 87.0664 20.24C87.3544 20.432 87.7224 20.528 88.1704 20.528C88.6184 20.528 88.9864 20.432 89.2744 20.24C89.5624 20.04 89.7384 19.808 89.8024 19.544H91.1104C91.0224 19.984 90.8424 20.368 90.5704 20.696C90.3064 21.024 89.9704 21.276 89.5624 21.452C89.1544 21.628 88.6904 21.716 88.1704 21.716ZM94.75 21.5L96.01 15.248H97.75L99.226 21.5H98.074L96.586 15.284H97.126L95.83 21.5H94.75ZM94.198 21.5V20.36H95.53V21.5H94.198ZM93.742 21.5L91.942 15.032H93.31L95.026 21.5H93.742ZM98.398 21.5V20.36H99.73V21.5H98.398ZM98.938 21.5L100.45 15.032H101.734L100.15 21.5H98.938Z" fill="white"/>
</svg>
